<svg width="204" height="234" viewBox="0 0 204 234" fill="none" xmlns="http://www.w3.org/2000/svg">
<g clip-path="url(#clip0_2655_3106)">
<path d="M202.744 58.6837L102 0.755615L1.25537 58.6837L102 116.612L202.744 58.6837Z" fill="white" stroke="#0D0D0D" stroke-width="1.51117" stroke-linecap="round" stroke-linejoin="round"/>
<path d="M202.744 58.6836V174.54L102 232.468V116.612L202.744 58.6836Z" fill="#FF3246" stroke="#0D0D0D" stroke-width="1.51117" stroke-linecap="round" stroke-linejoin="round"/>
<path d="M1.25537 58.6836V174.54L102 232.468V116.612L1.25537 58.6836Z" fill="#FFE00D" stroke="#0D0D0D" stroke-width="1.51117" stroke-linecap="round" stroke-linejoin="round"/>
<path d="M152.372 145.576L102 116.612L51.6279 145.576L102 174.54L152.372 145.576Z" fill="#0D0D0D" stroke="#0D0D0D" stroke-width="1.51117" stroke-linecap="round" stroke-linejoin="round"/>
<path d="M152.372 145.576V203.504L102 232.468V174.54L152.372 145.576Z" fill="#FFE00D" stroke="#0D0D0D" stroke-width="1.51117" stroke-linecap="round" stroke-linejoin="round"/>
<path d="M51.6279 145.576V203.504L102 232.468V174.54L51.6279 145.576Z" fill="#FF3246" stroke="#0D0D0D" stroke-width="1.51117" stroke-linecap="round" stroke-linejoin="round"/>
<path d="M127.186 189.022L102 174.54L76.814 189.022L102 203.504L127.186 189.022Z" fill="#0929D4" stroke="#0D0D0D" stroke-width="1.51117" stroke-linecap="round" stroke-linejoin="round"/>
<path d="M127.186 189.022V217.986L102 232.468V203.504L127.186 189.022Z" fill="#FF3246" stroke="#0D0D0D" stroke-width="1.51117" stroke-linecap="round" stroke-linejoin="round"/>
<path d="M76.814 189.022V217.986L102 232.468V203.504L76.814 189.022Z" fill="#FFE00D" stroke="#0D0D0D" stroke-width="1.51117" stroke-linecap="round" stroke-linejoin="round"/>
<path d="M114.593 210.742L102 203.504L89.4072 210.742L102 217.986L114.593 210.742Z" fill="#0929D4" stroke="#0D0D0D" stroke-width="1.51117" stroke-linecap="round" stroke-linejoin="round"/>
<path d="M114.594 210.742V225.224L102 232.468V217.986L114.594 210.742Z" fill="#FFE00D" stroke="#0D0D0D" stroke-width="1.51117" stroke-linecap="round" stroke-linejoin="round"/>
<path d="M89.4072 210.742V225.224L102 232.468V217.986L89.4072 210.742Z" fill="#FF3246" stroke="#0D0D0D" stroke-width="1.51117" stroke-linecap="round" stroke-linejoin="round"/>
</g>
<defs>
<clipPath id="clip0_2655_3106">
<rect width="203" height="233.223" fill="white" transform="translate(0.5)"/>
</clipPath>
</defs>
</svg>
