<svg width="103" height="90" viewBox="0 0 103 90" fill="none" xmlns="http://www.w3.org/2000/svg">
<path d="M56.718 47.9804L51.5007 45L46.2821 47.9804L51.5007 50.9622L56.718 47.9804Z" fill="#0929D4" stroke="#0D0D0D" stroke-width="0.75" stroke-linecap="round" stroke-linejoin="round"/>
<path d="M56.718 47.9805V53.9426L51.5007 56.9231V50.9622L56.718 47.9805Z" fill="white" stroke="#0D0D0D" stroke-width="0.75" stroke-linecap="round" stroke-linejoin="round"/>
<path d="M46.2821 47.9805V53.9426L51.5007 56.9231V50.9622L46.2821 47.9805Z" fill="white" stroke="#0D0D0D" stroke-width="0.75" stroke-linecap="round" stroke-linejoin="round"/>
<path d="M54.1093 52.4517L51.5007 50.9622L48.8907 52.4517L51.5007 53.9426L54.1093 52.4517Z" fill="#FF3246" stroke="#0D0D0D" stroke-width="0.75" stroke-linecap="round" stroke-linejoin="round"/>
<path d="M54.1094 52.4518V55.4335L51.5007 56.9231V53.9426L54.1094 52.4518Z" fill="white" stroke="#0D0D0D" stroke-width="0.75" stroke-linecap="round" stroke-linejoin="round"/>
<path d="M48.8907 52.4518V55.4335L51.5007 56.9231V53.9426L48.8907 52.4518Z" fill="white" stroke="#0D0D0D" stroke-width="0.75" stroke-linecap="round" stroke-linejoin="round"/>
<path d="M52.8044 54.6881L51.5008 53.9426L50.1958 54.6881L51.5008 55.4335L52.8044 54.6881Z" fill="#FFE00D" stroke="#0D0D0D" stroke-width="0.75" stroke-linecap="round" stroke-linejoin="round"/>
<path d="M52.8044 54.6881V56.1777L51.5007 56.9231V55.4335L52.8044 54.6881Z" fill="white" stroke="#0D0D0D" stroke-width="0.75" stroke-linecap="round" stroke-linejoin="round"/>
<path d="M50.1958 54.6881V56.1777L51.5008 56.9231V55.4335L50.1958 54.6881Z" fill="white" stroke="#0D0D0D" stroke-width="0.75" stroke-linecap="round" stroke-linejoin="round"/>
<path d="M51.5006 21.1539L41.0648 15.1918L30.6289 21.1539L41.0648 27.1148L51.5006 21.1539Z" fill="#FF3246" stroke="#0D0D0D" stroke-width="0.75" stroke-linecap="round" stroke-linejoin="round"/>
<path d="M51.5006 21.1539V33.077L41.0647 39.0378V27.1148L51.5006 21.1539Z" fill="#FFE00D" stroke="#0D0D0D" stroke-width="0.75" stroke-linecap="round" stroke-linejoin="round"/>
<path d="M30.6289 21.1539V33.077L41.0648 39.0378V27.1148L30.6289 21.1539Z" fill="#0D0D0D" stroke="#0D0D0D" stroke-width="0.75" stroke-linecap="round" stroke-linejoin="round"/>
<path d="M72.3711 21.1539L61.9365 15.1918L51.5006 21.1539L61.9365 27.1148L72.3711 21.1539Z" fill="#FFE00D" stroke="#0D0D0D" stroke-width="0.75" stroke-linecap="round" stroke-linejoin="round"/>
<path d="M72.3711 21.1539V33.077L61.9365 39.0378V27.1148L72.3711 21.1539Z" fill="#0D0D0D" stroke="#0D0D0D" stroke-width="0.75" stroke-linecap="round" stroke-linejoin="round"/>
<path d="M51.5006 21.1539V33.077L61.9365 39.0378V27.1148L51.5006 21.1539Z" fill="#FF3246" stroke="#0D0D0D" stroke-width="0.75" stroke-linecap="round" stroke-linejoin="round"/>
<path d="M67.1539 30.0966L61.9366 27.1149L56.718 30.0966L61.9366 33.077L67.1539 30.0966Z" fill="white" stroke="#0D0D0D" stroke-width="0.75" stroke-linecap="round" stroke-linejoin="round"/>
<path d="M67.1539 30.0966V36.0574L61.9366 39.0379V33.077L67.1539 30.0966Z" fill="white" stroke="#0D0D0D" stroke-width="0.75" stroke-linecap="round" stroke-linejoin="round"/>
<path d="M56.718 30.0966V36.0574L61.9366 39.0379V33.077L56.718 30.0966Z" fill="#FFE00D" stroke="#0D0D0D" stroke-width="0.75" stroke-linecap="round" stroke-linejoin="round"/>
<path d="M64.5452 34.5666L61.9366 33.077L59.3267 34.5666L61.9366 36.0575L64.5452 34.5666Z" fill="white" stroke="#0D0D0D" stroke-width="0.75" stroke-linecap="round" stroke-linejoin="round"/>
<path d="M64.5453 34.5667V37.5484L61.9366 39.0379V36.0575L64.5453 34.5667Z" fill="white" stroke="#0D0D0D" stroke-width="0.75" stroke-linecap="round" stroke-linejoin="round"/>
<path d="M59.3267 34.5667V37.5484L61.9366 39.0379V36.0575L59.3267 34.5667Z" fill="#0929D4" stroke="#0D0D0D" stroke-width="0.75" stroke-linecap="round" stroke-linejoin="round"/>
<path d="M63.2402 36.8029L61.9366 36.0575L60.6316 36.8029L61.9366 37.5484L63.2402 36.8029Z" fill="white" stroke="#0D0D0D" stroke-width="0.75" stroke-linecap="round" stroke-linejoin="round"/>
<path d="M63.2403 36.803V38.2938L61.9366 39.038V37.5484L63.2403 36.803Z" fill="white" stroke="#0D0D0D" stroke-width="0.75" stroke-linecap="round" stroke-linejoin="round"/>
<path d="M60.6316 36.803V38.2938L61.9366 39.038V37.5484L60.6316 36.803Z" fill="white" stroke="#0D0D0D" stroke-width="0.75" stroke-linecap="round" stroke-linejoin="round"/>
<path d="M67.1539 18.1722L61.9366 15.1918L56.718 18.1722L61.9366 21.1539L67.1539 18.1722Z" fill="#0929D4" stroke="#0D0D0D" stroke-width="0.75" stroke-linecap="round" stroke-linejoin="round"/>
<path d="M67.1539 18.1722V24.1344L61.9366 27.1148V21.154L67.1539 18.1722Z" fill="white" stroke="#0D0D0D" stroke-width="0.75" stroke-linecap="round" stroke-linejoin="round"/>
<path d="M56.718 18.1722V24.1344L61.9366 27.1148V21.154L56.718 18.1722Z" fill="white" stroke="#0D0D0D" stroke-width="0.75" stroke-linecap="round" stroke-linejoin="round"/>
<path d="M64.5452 22.6435L61.9366 21.1539L59.3267 22.6435L61.9366 24.1344L64.5452 22.6435Z" fill="#FF3246" stroke="#0D0D0D" stroke-width="0.75" stroke-linecap="round" stroke-linejoin="round"/>
<path d="M64.5453 22.6436V25.6253L61.9366 27.1149V24.1344L64.5453 22.6436Z" fill="white" stroke="#0D0D0D" stroke-width="0.75" stroke-linecap="round" stroke-linejoin="round"/>
<path d="M59.3267 22.6436V25.6253L61.9366 27.1149V24.1344L59.3267 22.6436Z" fill="white" stroke="#0D0D0D" stroke-width="0.75" stroke-linecap="round" stroke-linejoin="round"/>
<path d="M63.2402 24.8798L61.9366 24.1344L60.6316 24.8798L61.9366 25.6253L63.2402 24.8798Z" fill="#FFE00D" stroke="#0D0D0D" stroke-width="0.75" stroke-linecap="round" stroke-linejoin="round"/>
<path d="M63.2403 24.8799V26.3695L61.9366 27.1149V25.6253L63.2403 24.8799Z" fill="white" stroke="#0D0D0D" stroke-width="0.75" stroke-linecap="round" stroke-linejoin="round"/>
<path d="M60.6316 24.8799V26.3695L61.9366 27.1149V25.6253L60.6316 24.8799Z" fill="white" stroke="#0D0D0D" stroke-width="0.75" stroke-linecap="round" stroke-linejoin="round"/>
<path d="M51.5006 56.923L41.0648 50.9622L30.6289 56.923L41.0648 62.8852L51.5006 56.923Z" fill="#FF3246" stroke="#0D0D0D" stroke-width="0.75" stroke-linecap="round" stroke-linejoin="round"/>
<path d="M51.5006 56.923V68.846L41.0647 74.8082V62.8851L51.5006 56.923Z" fill="#FFE00D" stroke="#0D0D0D" stroke-width="0.75" stroke-linecap="round" stroke-linejoin="round"/>
<path d="M30.6289 56.923V68.846L41.0648 74.8082V62.8851L30.6289 56.923Z" fill="#0D0D0D" stroke="#0D0D0D" stroke-width="0.75" stroke-linecap="round" stroke-linejoin="round"/>
<path d="M46.2821 65.8656L41.0648 62.8851L35.8462 65.8656L41.0648 68.846L46.2821 65.8656Z" fill="white" stroke="#0D0D0D" stroke-width="0.75" stroke-linecap="round" stroke-linejoin="round"/>
<path d="M46.282 65.8656V71.8278L41.0647 74.8082V68.846L46.282 65.8656Z" fill="#FF3246" stroke="#0D0D0D" stroke-width="0.75" stroke-linecap="round" stroke-linejoin="round"/>
<path d="M35.8462 65.8656V71.8278L41.0648 74.8082V68.846L35.8462 65.8656Z" fill="white" stroke="#0D0D0D" stroke-width="0.75" stroke-linecap="round" stroke-linejoin="round"/>
<path d="M43.6733 70.3368L41.0647 68.8459L38.4561 70.3368L41.0647 71.8277L43.6733 70.3368Z" fill="white" stroke="#0D0D0D" stroke-width="0.75" stroke-linecap="round" stroke-linejoin="round"/>
<path d="M43.6733 70.3368V73.3172L41.0647 74.8081V71.8277L43.6733 70.3368Z" fill="#0929D4" stroke="#0D0D0D" stroke-width="0.75" stroke-linecap="round" stroke-linejoin="round"/>
<path d="M38.4561 70.3368V73.3172L41.0647 74.8081V71.8277L38.4561 70.3368Z" fill="white" stroke="#0D0D0D" stroke-width="0.75" stroke-linecap="round" stroke-linejoin="round"/>
<path d="M42.3684 72.5732L41.0647 71.8278L39.7598 72.5732L41.0647 73.3173L42.3684 72.5732Z" fill="white" stroke="#0D0D0D" stroke-width="0.75" stroke-linecap="round" stroke-linejoin="round"/>
<path d="M42.3684 72.5732V74.0628L41.0647 74.8083V73.3174L42.3684 72.5732Z" fill="white" stroke="#0D0D0D" stroke-width="0.75" stroke-linecap="round" stroke-linejoin="round"/>
<path d="M39.7598 72.5732V74.0628L41.0647 74.8083V73.3174L39.7598 72.5732Z" fill="white" stroke="#0D0D0D" stroke-width="0.75" stroke-linecap="round" stroke-linejoin="round"/>
<path d="M41.0648 39.0379L30.629 33.077L20.1931 39.0379L30.629 45.0001L41.0648 39.0379Z" fill="#FF3246" stroke="#0D0D0D" stroke-width="0.75" stroke-linecap="round" stroke-linejoin="round"/>
<path d="M41.0649 39.0378V50.9621L30.629 56.923V45L41.0649 39.0378Z" fill="#FFE00D" stroke="#0D0D0D" stroke-width="0.75" stroke-linecap="round" stroke-linejoin="round"/>
<path d="M20.1931 39.0378V50.9621L30.629 56.923V45L20.1931 39.0378Z" fill="#0D0D0D" stroke="#0D0D0D" stroke-width="0.75" stroke-linecap="round" stroke-linejoin="round"/>
<path d="M35.8461 47.9804L30.6289 45L25.4103 47.9804L30.6289 50.9622L35.8461 47.9804Z" fill="white" stroke="#0D0D0D" stroke-width="0.75" stroke-linecap="round" stroke-linejoin="round"/>
<path d="M35.8462 47.9805V53.9426L30.6289 56.9231V50.9622L35.8462 47.9805Z" fill="#FF3246" stroke="#0D0D0D" stroke-width="0.75" stroke-linecap="round" stroke-linejoin="round"/>
<path d="M25.4103 47.9805V53.9426L30.6289 56.9231V50.9622L25.4103 47.9805Z" fill="white" stroke="#0D0D0D" stroke-width="0.75" stroke-linecap="round" stroke-linejoin="round"/>
<path d="M33.2376 52.4517L30.6289 50.9622L28.0203 52.4517L30.6289 53.9426L33.2376 52.4517Z" fill="white" stroke="#0D0D0D" stroke-width="0.75" stroke-linecap="round" stroke-linejoin="round"/>
<path d="M33.2376 52.4518V55.4335L30.6289 56.9231V53.9426L33.2376 52.4518Z" fill="#0929D4" stroke="#0D0D0D" stroke-width="0.75" stroke-linecap="round" stroke-linejoin="round"/>
<path d="M28.0203 52.4518V55.4335L30.6289 56.9231V53.9426L28.0203 52.4518Z" fill="white" stroke="#0D0D0D" stroke-width="0.75" stroke-linecap="round" stroke-linejoin="round"/>
<path d="M31.9326 54.6881L30.6289 53.9426L29.324 54.6881L30.6289 55.4335L31.9326 54.6881Z" fill="white" stroke="#0D0D0D" stroke-width="0.75" stroke-linecap="round" stroke-linejoin="round"/>
<path d="M31.9326 54.6881V56.1777L30.6289 56.9231V55.4335L31.9326 54.6881Z" fill="white" stroke="#0D0D0D" stroke-width="0.75" stroke-linecap="round" stroke-linejoin="round"/>
<path d="M29.324 54.6881V56.1777L30.6289 56.9231V55.4335L29.324 54.6881Z" fill="white" stroke="#0D0D0D" stroke-width="0.75" stroke-linecap="round" stroke-linejoin="round"/>
<path d="M35.8461 36.0575L30.6289 33.077L25.4103 36.0575L30.6289 39.0379L35.8461 36.0575Z" fill="#0929D4" stroke="#0D0D0D" stroke-width="0.75" stroke-linecap="round" stroke-linejoin="round"/>
<path d="M35.8462 36.0575V42.0196L30.6289 45.0001V39.0379L35.8462 36.0575Z" fill="white" stroke="#0D0D0D" stroke-width="0.75" stroke-linecap="round" stroke-linejoin="round"/>
<path d="M25.4103 36.0575V42.0196L30.6289 45.0001V39.0379L25.4103 36.0575Z" fill="white" stroke="#0D0D0D" stroke-width="0.75" stroke-linecap="round" stroke-linejoin="round"/>
<path d="M33.2376 40.5287L30.6289 39.0378L28.0203 40.5287L30.6289 42.0196L33.2376 40.5287Z" fill="#FF3246" stroke="#0D0D0D" stroke-width="0.75" stroke-linecap="round" stroke-linejoin="round"/>
<path d="M33.2376 40.5287V43.5091L30.6289 45V42.0195L33.2376 40.5287Z" fill="white" stroke="#0D0D0D" stroke-width="0.75" stroke-linecap="round" stroke-linejoin="round"/>
<path d="M28.0203 40.5287V43.5091L30.6289 45V42.0195L28.0203 40.5287Z" fill="white" stroke="#0D0D0D" stroke-width="0.75" stroke-linecap="round" stroke-linejoin="round"/>
<path d="M31.9326 42.7651L30.6289 42.0197L29.324 42.7651L30.6289 43.5092L31.9326 42.7651Z" fill="#FFE00D" stroke="#0D0D0D" stroke-width="0.75" stroke-linecap="round" stroke-linejoin="round"/>
<path d="M31.9326 42.7651V44.2547L30.6289 45.0001V43.5093L31.9326 42.7651Z" fill="white" stroke="#0D0D0D" stroke-width="0.75" stroke-linecap="round" stroke-linejoin="round"/>
<path d="M29.324 42.7651V44.2547L30.6289 45.0001V43.5093L29.324 42.7651Z" fill="white" stroke="#0D0D0D" stroke-width="0.75" stroke-linecap="round" stroke-linejoin="round"/>
<path d="M82.807 39.0379L72.3711 33.077L61.9365 39.0379L72.3711 45.0001L82.807 39.0379Z" fill="#FFE00D" stroke="#0D0D0D" stroke-width="0.75" stroke-linecap="round" stroke-linejoin="round"/>
<path d="M82.807 39.0378V50.9621L72.3711 56.923V45L82.807 39.0378Z" fill="#0D0D0D" stroke="#0D0D0D" stroke-width="0.75" stroke-linecap="round" stroke-linejoin="round"/>
<path d="M61.9365 39.0378V50.9621L72.3711 56.923V45L61.9365 39.0378Z" fill="#FF3246" stroke="#0D0D0D" stroke-width="0.75" stroke-linecap="round" stroke-linejoin="round"/>
<path d="M72.3711 56.923L61.9365 50.9622L51.5006 56.923L61.9365 62.8852L72.3711 56.923Z" fill="#FFE00D" stroke="#0D0D0D" stroke-width="0.75" stroke-linecap="round" stroke-linejoin="round"/>
<path d="M72.3711 56.923V68.846L61.9365 74.8082V62.8851L72.3711 56.923Z" fill="#0D0D0D" stroke="#0D0D0D" stroke-width="0.75" stroke-linecap="round" stroke-linejoin="round"/>
<path d="M51.5006 56.923V68.846L61.9365 74.8082V62.8851L51.5006 56.923Z" fill="#FF3246" stroke="#0D0D0D" stroke-width="0.75" stroke-linecap="round" stroke-linejoin="round"/>
<path d="M67.1539 53.9426L61.9366 50.9622L56.718 53.9426L61.9366 56.923L67.1539 53.9426Z" fill="#0929D4" stroke="#0D0D0D" stroke-width="0.75" stroke-linecap="round" stroke-linejoin="round"/>
<path d="M67.1539 53.9426V59.9048L61.9366 62.8852V56.9231L67.1539 53.9426Z" fill="white" stroke="#0D0D0D" stroke-width="0.75" stroke-linecap="round" stroke-linejoin="round"/>
<path d="M56.718 53.9426V59.9048L61.9366 62.8852V56.9231L56.718 53.9426Z" fill="white" stroke="#0D0D0D" stroke-width="0.75" stroke-linecap="round" stroke-linejoin="round"/>
<path d="M64.5452 58.4138L61.9366 56.923L59.3267 58.4138L61.9366 59.9047L64.5452 58.4138Z" fill="#FF3246" stroke="#0D0D0D" stroke-width="0.75" stroke-linecap="round" stroke-linejoin="round"/>
<path d="M64.5453 58.4138V61.3943L61.9366 62.8851V59.9047L64.5453 58.4138Z" fill="white" stroke="#0D0D0D" stroke-width="0.75" stroke-linecap="round" stroke-linejoin="round"/>
<path d="M59.3267 58.4138V61.3943L61.9366 62.8851V59.9047L59.3267 58.4138Z" fill="white" stroke="#0D0D0D" stroke-width="0.75" stroke-linecap="round" stroke-linejoin="round"/>
<path d="M63.2402 60.6489L61.9366 59.9048L60.6316 60.6489L61.9366 61.3944L63.2402 60.6489Z" fill="#FFE00D" stroke="#0D0D0D" stroke-width="0.75" stroke-linecap="round" stroke-linejoin="round"/>
<path d="M63.2403 60.6489V62.1398L61.9366 62.8852V61.3944L63.2403 60.6489Z" fill="white" stroke="#0D0D0D" stroke-width="0.75" stroke-linecap="round" stroke-linejoin="round"/>
<path d="M60.6316 60.6489V62.1398L61.9366 62.8852V61.3944L60.6316 60.6489Z" fill="white" stroke="#0D0D0D" stroke-width="0.75" stroke-linecap="round" stroke-linejoin="round"/>
</svg>
