<svg width="65" height="62" viewBox="0 0 65 62" fill="none" xmlns="http://www.w3.org/2000/svg">
<path d="M37.7179 33.9804L32.5007 31L27.2821 33.9804L32.5007 36.9622L37.7179 33.9804Z" fill="#0929D4" stroke="#0D0D0D" stroke-width="0.75" stroke-linecap="round" stroke-linejoin="round"/>
<path d="M37.7179 33.9805V39.9426L32.5006 42.9231V36.9622L37.7179 33.9805Z" fill="white" stroke="#0D0D0D" stroke-width="0.75" stroke-linecap="round" stroke-linejoin="round"/>
<path d="M27.2821 33.9805V39.9426L32.5007 42.9231V36.9622L27.2821 33.9805Z" fill="white" stroke="#0D0D0D" stroke-width="0.75" stroke-linecap="round" stroke-linejoin="round"/>
<path d="M35.1093 38.4517L32.5007 36.9622L29.8907 38.4517L32.5007 39.9426L35.1093 38.4517Z" fill="#FF3246" stroke="#0D0D0D" stroke-width="0.75" stroke-linecap="round" stroke-linejoin="round"/>
<path d="M35.1093 38.4518V41.4335L32.5007 42.9231V39.9426L35.1093 38.4518Z" fill="white" stroke="#0D0D0D" stroke-width="0.75" stroke-linecap="round" stroke-linejoin="round"/>
<path d="M29.8907 38.4518V41.4335L32.5007 42.9231V39.9426L29.8907 38.4518Z" fill="white" stroke="#0D0D0D" stroke-width="0.75" stroke-linecap="round" stroke-linejoin="round"/>
<path d="M33.8044 40.6881L32.5007 39.9426L31.1957 40.6881L32.5007 41.4335L33.8044 40.6881Z" fill="#FFE00D" stroke="#0D0D0D" stroke-width="0.75" stroke-linecap="round" stroke-linejoin="round"/>
<path d="M33.8044 40.6881V42.1777L32.5007 42.9231V41.4335L33.8044 40.6881Z" fill="white" stroke="#0D0D0D" stroke-width="0.75" stroke-linecap="round" stroke-linejoin="round"/>
<path d="M31.1957 40.6881V42.1777L32.5007 42.9231V41.4335L31.1957 40.6881Z" fill="white" stroke="#0D0D0D" stroke-width="0.75" stroke-linecap="round" stroke-linejoin="round"/>
<path d="M32.5006 7.15393L22.0648 1.19177L11.6289 7.15393L22.0648 13.1148L32.5006 7.15393Z" fill="#FF3246" stroke="#0D0D0D" stroke-width="0.75" stroke-linecap="round" stroke-linejoin="round"/>
<path d="M32.5006 7.15393V19.077L22.0647 25.0378V13.1148L32.5006 7.15393Z" fill="#FFE00D" stroke="#0D0D0D" stroke-width="0.75" stroke-linecap="round" stroke-linejoin="round"/>
<path d="M11.6289 7.15393V19.077L22.0648 25.0378V13.1148L11.6289 7.15393Z" fill="#0D0D0D" stroke="#0D0D0D" stroke-width="0.75" stroke-linecap="round" stroke-linejoin="round"/>
<path d="M53.3711 7.15393L42.9365 1.19177L32.5006 7.15393L42.9365 13.1148L53.3711 7.15393Z" fill="#FFE00D" stroke="#0D0D0D" stroke-width="0.75" stroke-linecap="round" stroke-linejoin="round"/>
<path d="M53.3711 7.15393V19.077L42.9365 25.0378V13.1148L53.3711 7.15393Z" fill="#0D0D0D" stroke="#0D0D0D" stroke-width="0.75" stroke-linecap="round" stroke-linejoin="round"/>
<path d="M32.5006 7.15393V19.077L42.9365 25.0378V13.1148L32.5006 7.15393Z" fill="#FF3246" stroke="#0D0D0D" stroke-width="0.75" stroke-linecap="round" stroke-linejoin="round"/>
<path d="M48.1539 16.0966L42.9366 13.1149L37.718 16.0966L42.9366 19.077L48.1539 16.0966Z" fill="white" stroke="#0D0D0D" stroke-width="0.75" stroke-linecap="round" stroke-linejoin="round"/>
<path d="M48.1539 16.0966V22.0574L42.9366 25.0379V19.077L48.1539 16.0966Z" fill="white" stroke="#0D0D0D" stroke-width="0.75" stroke-linecap="round" stroke-linejoin="round"/>
<path d="M37.718 16.0966V22.0574L42.9366 25.0379V19.077L37.718 16.0966Z" fill="#FFE00D" stroke="#0D0D0D" stroke-width="0.75" stroke-linecap="round" stroke-linejoin="round"/>
<path d="M45.5452 20.5666L42.9366 19.077L40.3267 20.5666L42.9366 22.0575L45.5452 20.5666Z" fill="white" stroke="#0D0D0D" stroke-width="0.75" stroke-linecap="round" stroke-linejoin="round"/>
<path d="M45.5452 20.5667V23.5484L42.9366 25.0379V22.0575L45.5452 20.5667Z" fill="white" stroke="#0D0D0D" stroke-width="0.75" stroke-linecap="round" stroke-linejoin="round"/>
<path d="M40.3267 20.5667V23.5484L42.9366 25.0379V22.0575L40.3267 20.5667Z" fill="#0929D4" stroke="#0D0D0D" stroke-width="0.75" stroke-linecap="round" stroke-linejoin="round"/>
<path d="M44.2403 22.8029L42.9366 22.0575L41.6316 22.8029L42.9366 23.5484L44.2403 22.8029Z" fill="white" stroke="#0D0D0D" stroke-width="0.75" stroke-linecap="round" stroke-linejoin="round"/>
<path d="M44.2403 22.803V24.2938L42.9366 25.038V23.5484L44.2403 22.803Z" fill="white" stroke="#0D0D0D" stroke-width="0.75" stroke-linecap="round" stroke-linejoin="round"/>
<path d="M41.6316 22.803V24.2938L42.9366 25.038V23.5484L41.6316 22.803Z" fill="white" stroke="#0D0D0D" stroke-width="0.75" stroke-linecap="round" stroke-linejoin="round"/>
<path d="M48.1539 4.17221L42.9366 1.19177L37.718 4.17221L42.9366 7.15393L48.1539 4.17221Z" fill="#0929D4" stroke="#0D0D0D" stroke-width="0.75" stroke-linecap="round" stroke-linejoin="round"/>
<path d="M48.1539 4.17224V10.1344L42.9366 13.1148V7.15396L48.1539 4.17224Z" fill="white" stroke="#0D0D0D" stroke-width="0.75" stroke-linecap="round" stroke-linejoin="round"/>
<path d="M37.718 4.17224V10.1344L42.9366 13.1148V7.15396L37.718 4.17224Z" fill="white" stroke="#0D0D0D" stroke-width="0.75" stroke-linecap="round" stroke-linejoin="round"/>
<path d="M45.5452 8.64351L42.9366 7.15393L40.3267 8.64351L42.9366 10.1344L45.5452 8.64351Z" fill="#FF3246" stroke="#0D0D0D" stroke-width="0.75" stroke-linecap="round" stroke-linejoin="round"/>
<path d="M45.5452 8.64355V11.6253L42.9366 13.1149V10.1344L45.5452 8.64355Z" fill="white" stroke="#0D0D0D" stroke-width="0.75" stroke-linecap="round" stroke-linejoin="round"/>
<path d="M40.3267 8.64355V11.6253L42.9366 13.1149V10.1344L40.3267 8.64355Z" fill="white" stroke="#0D0D0D" stroke-width="0.75" stroke-linecap="round" stroke-linejoin="round"/>
<path d="M44.2403 10.8798L42.9366 10.1344L41.6316 10.8798L42.9366 11.6253L44.2403 10.8798Z" fill="#FFE00D" stroke="#0D0D0D" stroke-width="0.75" stroke-linecap="round" stroke-linejoin="round"/>
<path d="M44.2403 10.8799V12.3695L42.9366 13.1149V11.6253L44.2403 10.8799Z" fill="white" stroke="#0D0D0D" stroke-width="0.75" stroke-linecap="round" stroke-linejoin="round"/>
<path d="M41.6316 10.8799V12.3695L42.9366 13.1149V11.6253L41.6316 10.8799Z" fill="white" stroke="#0D0D0D" stroke-width="0.75" stroke-linecap="round" stroke-linejoin="round"/>
<path d="M32.5006 42.923L22.0648 36.9622L11.6289 42.923L22.0648 48.8852L32.5006 42.923Z" fill="#FF3246" stroke="#0D0D0D" stroke-width="0.75" stroke-linecap="round" stroke-linejoin="round"/>
<path d="M32.5006 42.923V54.846L22.0647 60.8082V48.8851L32.5006 42.923Z" fill="#FFE00D" stroke="#0D0D0D" stroke-width="0.75" stroke-linecap="round" stroke-linejoin="round"/>
<path d="M11.6289 42.923V54.846L22.0648 60.8082V48.8851L11.6289 42.923Z" fill="#0D0D0D" stroke="#0D0D0D" stroke-width="0.75" stroke-linecap="round" stroke-linejoin="round"/>
<path d="M27.2821 51.8656L22.0648 48.8851L16.8462 51.8656L22.0648 54.846L27.2821 51.8656Z" fill="white" stroke="#0D0D0D" stroke-width="0.75" stroke-linecap="round" stroke-linejoin="round"/>
<path d="M27.282 51.8656V57.8278L22.0647 60.8082V54.846L27.282 51.8656Z" fill="#FF3246" stroke="#0D0D0D" stroke-width="0.75" stroke-linecap="round" stroke-linejoin="round"/>
<path d="M16.8462 51.8656V57.8278L22.0648 60.8082V54.846L16.8462 51.8656Z" fill="white" stroke="#0D0D0D" stroke-width="0.75" stroke-linecap="round" stroke-linejoin="round"/>
<path d="M24.6734 56.3368L22.0647 54.8459L19.4561 56.3368L22.0647 57.8277L24.6734 56.3368Z" fill="white" stroke="#0D0D0D" stroke-width="0.75" stroke-linecap="round" stroke-linejoin="round"/>
<path d="M24.6734 56.3368V59.3172L22.0647 60.8081V57.8277L24.6734 56.3368Z" fill="#0929D4" stroke="#0D0D0D" stroke-width="0.75" stroke-linecap="round" stroke-linejoin="round"/>
<path d="M19.4561 56.3368V59.3172L22.0647 60.8081V57.8277L19.4561 56.3368Z" fill="white" stroke="#0D0D0D" stroke-width="0.75" stroke-linecap="round" stroke-linejoin="round"/>
<path d="M23.3684 58.5732L22.0648 57.8278L20.7598 58.5732L22.0648 59.3173L23.3684 58.5732Z" fill="white" stroke="#0D0D0D" stroke-width="0.75" stroke-linecap="round" stroke-linejoin="round"/>
<path d="M23.3684 58.5732V60.0628L22.0648 60.8083V59.3174L23.3684 58.5732Z" fill="white" stroke="#0D0D0D" stroke-width="0.75" stroke-linecap="round" stroke-linejoin="round"/>
<path d="M20.7598 58.5732V60.0628L22.0648 60.8083V59.3174L20.7598 58.5732Z" fill="white" stroke="#0D0D0D" stroke-width="0.75" stroke-linecap="round" stroke-linejoin="round"/>
<path d="M22.0649 25.0379L11.629 19.077L1.19315 25.0379L11.629 31.0001L22.0649 25.0379Z" fill="#FF3246" stroke="#0D0D0D" stroke-width="0.75" stroke-linecap="round" stroke-linejoin="round"/>
<path d="M22.0649 25.0378V36.9621L11.629 42.923V31L22.0649 25.0378Z" fill="#FFE00D" stroke="#0D0D0D" stroke-width="0.75" stroke-linecap="round" stroke-linejoin="round"/>
<path d="M1.19315 25.0378V36.9621L11.629 42.923V31L1.19315 25.0378Z" fill="#0D0D0D" stroke="#0D0D0D" stroke-width="0.75" stroke-linecap="round" stroke-linejoin="round"/>
<path d="M16.8462 33.9804L11.6289 31L6.41034 33.9804L11.6289 36.9622L16.8462 33.9804Z" fill="white" stroke="#0D0D0D" stroke-width="0.75" stroke-linecap="round" stroke-linejoin="round"/>
<path d="M16.8462 33.9805V39.9426L11.6289 42.9231V36.9622L16.8462 33.9805Z" fill="#FF3246" stroke="#0D0D0D" stroke-width="0.75" stroke-linecap="round" stroke-linejoin="round"/>
<path d="M6.41034 33.9805V39.9426L11.6289 42.9231V36.9622L6.41034 33.9805Z" fill="white" stroke="#0D0D0D" stroke-width="0.75" stroke-linecap="round" stroke-linejoin="round"/>
<path d="M14.2377 38.4517L11.629 36.9622L9.02039 38.4517L11.629 39.9426L14.2377 38.4517Z" fill="white" stroke="#0D0D0D" stroke-width="0.75" stroke-linecap="round" stroke-linejoin="round"/>
<path d="M14.2377 38.4518V41.4335L11.629 42.9231V39.9426L14.2377 38.4518Z" fill="#0929D4" stroke="#0D0D0D" stroke-width="0.75" stroke-linecap="round" stroke-linejoin="round"/>
<path d="M9.02039 38.4518V41.4335L11.629 42.9231V39.9426L9.02039 38.4518Z" fill="white" stroke="#0D0D0D" stroke-width="0.75" stroke-linecap="round" stroke-linejoin="round"/>
<path d="M12.9326 40.6881L11.6289 39.9426L10.324 40.6881L11.6289 41.4335L12.9326 40.6881Z" fill="white" stroke="#0D0D0D" stroke-width="0.75" stroke-linecap="round" stroke-linejoin="round"/>
<path d="M12.9326 40.6881V42.1777L11.629 42.9231V41.4335L12.9326 40.6881Z" fill="white" stroke="#0D0D0D" stroke-width="0.75" stroke-linecap="round" stroke-linejoin="round"/>
<path d="M10.324 40.6881V42.1777L11.6289 42.9231V41.4335L10.324 40.6881Z" fill="white" stroke="#0D0D0D" stroke-width="0.75" stroke-linecap="round" stroke-linejoin="round"/>
<path d="M16.8462 22.0575L11.6289 19.077L6.41034 22.0575L11.6289 25.0379L16.8462 22.0575Z" fill="#0929D4" stroke="#0D0D0D" stroke-width="0.75" stroke-linecap="round" stroke-linejoin="round"/>
<path d="M16.8462 22.0575V28.0196L11.6289 31.0001V25.0379L16.8462 22.0575Z" fill="white" stroke="#0D0D0D" stroke-width="0.75" stroke-linecap="round" stroke-linejoin="round"/>
<path d="M6.41034 22.0575V28.0196L11.6289 31.0001V25.0379L6.41034 22.0575Z" fill="white" stroke="#0D0D0D" stroke-width="0.75" stroke-linecap="round" stroke-linejoin="round"/>
<path d="M14.2377 26.5287L11.629 25.0378L9.02039 26.5287L11.629 28.0196L14.2377 26.5287Z" fill="#FF3246" stroke="#0D0D0D" stroke-width="0.75" stroke-linecap="round" stroke-linejoin="round"/>
<path d="M14.2377 26.5287V29.5091L11.629 31V28.0195L14.2377 26.5287Z" fill="white" stroke="#0D0D0D" stroke-width="0.75" stroke-linecap="round" stroke-linejoin="round"/>
<path d="M9.02039 26.5287V29.5091L11.629 31V28.0195L9.02039 26.5287Z" fill="white" stroke="#0D0D0D" stroke-width="0.75" stroke-linecap="round" stroke-linejoin="round"/>
<path d="M12.9326 28.7651L11.6289 28.0197L10.324 28.7651L11.6289 29.5092L12.9326 28.7651Z" fill="#FFE00D" stroke="#0D0D0D" stroke-width="0.75" stroke-linecap="round" stroke-linejoin="round"/>
<path d="M12.9326 28.7651V30.2547L11.629 31.0001V29.5093L12.9326 28.7651Z" fill="white" stroke="#0D0D0D" stroke-width="0.75" stroke-linecap="round" stroke-linejoin="round"/>
<path d="M10.324 28.7651V30.2547L11.6289 31.0001V29.5093L10.324 28.7651Z" fill="white" stroke="#0D0D0D" stroke-width="0.75" stroke-linecap="round" stroke-linejoin="round"/>
<path d="M63.807 25.0379L53.3711 19.077L42.9365 25.0379L53.3711 31.0001L63.807 25.0379Z" fill="#FFE00D" stroke="#0D0D0D" stroke-width="0.75" stroke-linecap="round" stroke-linejoin="round"/>
<path d="M63.807 25.0378V36.9621L53.3711 42.923V31L63.807 25.0378Z" fill="#0D0D0D" stroke="#0D0D0D" stroke-width="0.75" stroke-linecap="round" stroke-linejoin="round"/>
<path d="M42.9365 25.0378V36.9621L53.3711 42.923V31L42.9365 25.0378Z" fill="#FF3246" stroke="#0D0D0D" stroke-width="0.75" stroke-linecap="round" stroke-linejoin="round"/>
<path d="M53.3711 42.923L42.9365 36.9622L32.5006 42.923L42.9365 48.8852L53.3711 42.923Z" fill="#FFE00D" stroke="#0D0D0D" stroke-width="0.75" stroke-linecap="round" stroke-linejoin="round"/>
<path d="M53.3711 42.923V54.846L42.9365 60.8082V48.8851L53.3711 42.923Z" fill="#0D0D0D" stroke="#0D0D0D" stroke-width="0.75" stroke-linecap="round" stroke-linejoin="round"/>
<path d="M32.5006 42.923V54.846L42.9365 60.8082V48.8851L32.5006 42.923Z" fill="#FF3246" stroke="#0D0D0D" stroke-width="0.75" stroke-linecap="round" stroke-linejoin="round"/>
<path d="M48.1539 39.9426L42.9366 36.9622L37.718 39.9426L42.9366 42.923L48.1539 39.9426Z" fill="#0929D4" stroke="#0D0D0D" stroke-width="0.75" stroke-linecap="round" stroke-linejoin="round"/>
<path d="M48.1539 39.9426V45.9048L42.9366 48.8852V42.9231L48.1539 39.9426Z" fill="white" stroke="#0D0D0D" stroke-width="0.75" stroke-linecap="round" stroke-linejoin="round"/>
<path d="M37.718 39.9426V45.9048L42.9366 48.8852V42.9231L37.718 39.9426Z" fill="white" stroke="#0D0D0D" stroke-width="0.75" stroke-linecap="round" stroke-linejoin="round"/>
<path d="M45.5452 44.4138L42.9366 42.923L40.3267 44.4138L42.9366 45.9047L45.5452 44.4138Z" fill="#FF3246" stroke="#0D0D0D" stroke-width="0.75" stroke-linecap="round" stroke-linejoin="round"/>
<path d="M45.5452 44.4138V47.3943L42.9366 48.8851V45.9047L45.5452 44.4138Z" fill="white" stroke="#0D0D0D" stroke-width="0.75" stroke-linecap="round" stroke-linejoin="round"/>
<path d="M40.3267 44.4138V47.3943L42.9366 48.8851V45.9047L40.3267 44.4138Z" fill="white" stroke="#0D0D0D" stroke-width="0.75" stroke-linecap="round" stroke-linejoin="round"/>
<path d="M44.2403 46.6489L42.9366 45.9048L41.6316 46.6489L42.9366 47.3944L44.2403 46.6489Z" fill="#FFE00D" stroke="#0D0D0D" stroke-width="0.75" stroke-linecap="round" stroke-linejoin="round"/>
<path d="M44.2403 46.6489V48.1398L42.9366 48.8852V47.3944L44.2403 46.6489Z" fill="white" stroke="#0D0D0D" stroke-width="0.75" stroke-linecap="round" stroke-linejoin="round"/>
<path d="M41.6316 46.6489V48.1398L42.9366 48.8852V47.3944L41.6316 46.6489Z" fill="white" stroke="#0D0D0D" stroke-width="0.75" stroke-linecap="round" stroke-linejoin="round"/>
</svg>
