<svg width="31" height="46" viewBox="0 0 31 46" fill="none" xmlns="http://www.w3.org/2000/svg">
<g clip-path="url(#clip0_2700_5751)">
<path d="M5.90407 31.0518H14.032V27.4978H5.90407V24.6637H15.1296V20.9886H0.782471V37.801H15.4696V34.1259H5.90407V31.0518Z" fill="#003399"/>
<path d="M26.6905 20.9886V30.0275C26.6905 31.4473 26.4327 32.465 25.9172 33.0805C25.4017 33.6959 24.6862 34.0037 23.773 34.0037C22.8598 34.0037 22.141 33.6959 21.6188 33.0805C21.0956 32.465 20.8345 31.4473 20.8345 30.0275V20.9886H16.4584V30.1697C16.4584 32.6305 17.0994 34.5314 18.3815 35.8723C19.6635 37.2133 21.4455 37.8832 23.7297 37.8832C26.0139 37.8832 27.7959 37.2133 29.0779 35.8723C30.36 34.5314 31.001 32.6305 31.001 30.1697V20.9886H26.6905Z" fill="#003399"/>
<path d="M14.6197 9.56662C14.062 8.5823 13.3176 7.82683 12.3866 7.29912C11.4567 6.77252 10.4335 6.5081 9.31699 6.5081C8.20046 6.5081 7.30502 6.74474 6.58399 7.21691C6.40512 7.33356 6.23959 7.46688 6.08405 7.61352V0H0.829132V19.4621H5.82964V18.4133C6.03073 18.6389 6.25403 18.8344 6.504 18.9977C7.21725 19.4632 8.15491 19.6954 9.31811 19.6954C10.4813 19.6954 11.4578 19.4277 12.3877 18.8933C13.3176 18.3589 14.062 17.599 14.6208 16.6147C15.1785 15.6303 15.4585 14.456 15.4585 13.0918C15.4585 11.7275 15.1796 10.5532 14.6208 9.56884L14.6197 9.56662ZM9.85249 14.4738C9.66695 14.8538 9.41809 15.1371 9.10813 15.3226C8.79817 15.5081 8.44932 15.6014 8.06159 15.6014C7.67386 15.6014 7.32501 15.5081 7.01505 15.3226C6.70509 15.1371 6.45734 14.8538 6.2707 14.4738C6.08516 14.0939 5.99184 13.6328 5.99184 13.0895C5.99184 12.5463 6.08516 12.0697 6.2707 11.7053C6.45734 11.3409 6.70509 11.0653 7.01505 10.8798C7.32501 10.6943 7.67386 10.6009 8.06159 10.6009C8.44932 10.6009 8.79817 10.6943 9.10813 10.8798C9.41809 11.0664 9.66584 11.3409 9.85249 11.7053C10.038 12.0697 10.1313 12.5307 10.1313 13.0895C10.1313 13.6484 10.038 14.0939 9.85249 14.4738Z" fill="#FFE900"/>
<path d="M30.0001 8.8056C29.3412 7.72462 28.4691 6.90917 27.3815 6.35923C26.2949 5.81041 25.1084 5.53489 23.823 5.53489C22.4265 5.53489 21.1689 5.84374 20.0513 6.46144C18.9325 7.07915 18.0515 7.93793 17.4094 9.03669C16.7672 10.1354 16.445 11.3975 16.445 12.8218C16.445 14.2461 16.7705 15.4615 17.4205 16.5691C18.0704 17.6768 18.9869 18.5478 20.169 19.1832C21.3511 19.8187 22.7354 20.1365 24.3218 20.1365C25.6228 20.1365 26.7371 19.9431 27.6659 19.5565C28.5936 19.1699 29.3757 18.6078 30.0101 17.8701L27.2015 14.806C26.7727 15.1493 26.3649 15.407 25.9761 15.5781C25.5873 15.7503 25.0918 15.8359 24.4885 15.8359C23.8852 15.8359 23.402 15.7292 22.9887 15.5137C22.5754 15.2993 22.2588 14.9771 22.0366 14.5482C21.9777 14.4338 21.9266 14.3138 21.8833 14.1872H30.9133C30.9288 13.9816 30.9444 13.7539 30.961 13.505C30.9766 13.2562 30.9844 13.0284 30.9844 12.8229C30.9844 11.2264 30.6544 9.88769 29.9967 8.8056H30.0001ZM22.7165 9.82215C23.042 9.60773 23.4264 9.49996 23.8708 9.49996C24.3152 9.49996 24.6951 9.60773 25.0129 9.82215C25.3306 10.0366 25.5795 10.3376 25.7628 10.7231C25.8561 10.9209 25.925 11.1398 25.9705 11.3797H21.7677C21.811 11.1398 21.8777 10.9209 21.9666 10.7231C22.141 10.3365 22.391 10.0366 22.7165 9.82215Z" fill="#FFE900"/>
<path d="M10.8513 39.343H0.770264V40.3373H10.8513V39.343Z" fill="black"/>
<path d="M20.9323 39.343H10.8513V40.3373H20.9323V39.343Z" fill="#FEE800"/>
<path d="M30.9877 39.343H20.9067V40.3373H30.9877V39.343Z" fill="#ED1C24"/>
<path d="M0.770264 45.1367V41.9671H1.43685V43.3047L1.39463 43.9835L1.40796 44.6668V45.1367H0.770264ZM2.12899 45.1712C1.92679 45.1712 1.75348 45.1289 1.60794 45.0434C1.4624 44.9579 1.3513 44.8279 1.27465 44.6523C1.19799 44.4768 1.15911 44.2557 1.15911 43.988C1.15911 43.7202 1.20021 43.4947 1.28131 43.3214C1.36241 43.1481 1.47573 43.0181 1.62127 42.9325C1.76681 42.847 1.93568 42.8048 2.1301 42.8048C2.34674 42.8048 2.54116 42.8537 2.71336 42.9503C2.88556 43.047 3.02221 43.1836 3.12331 43.3603C3.22441 43.5369 3.27552 43.7458 3.27552 43.988C3.27552 44.2302 3.22441 44.4346 3.12331 44.6112C3.02221 44.7879 2.88556 44.9256 2.71336 45.0234C2.54116 45.1212 2.34674 45.1712 2.1301 45.1712H2.12899ZM2.01345 44.6234C2.12454 44.6234 2.22342 44.5979 2.31008 44.5468C2.39673 44.4957 2.46673 44.4224 2.51894 44.3268C2.57116 44.2313 2.59782 44.118 2.59782 43.9869C2.59782 43.8558 2.57116 43.7391 2.51894 43.6447C2.46673 43.5502 2.39673 43.478 2.31008 43.4269C2.22342 43.3758 2.12454 43.3503 2.01345 43.3503C1.90235 43.3503 1.80236 43.3758 1.71459 43.4269C1.62572 43.478 1.55684 43.5514 1.50573 43.6447C1.45463 43.7391 1.42907 43.8524 1.42907 43.9869C1.42907 44.1213 1.45463 44.2313 1.50573 44.3268C1.55684 44.4224 1.62683 44.4957 1.71459 44.5468C1.80236 44.5979 1.90235 44.6234 2.01345 44.6234Z" fill="#003399"/>
<path d="M4.85866 45.1712C4.59647 45.1712 4.3665 45.1201 4.16874 45.0167C3.97099 44.9145 3.81767 44.7734 3.70991 44.5957C3.60214 44.4179 3.54771 44.2146 3.54771 43.9869C3.54771 43.7591 3.60103 43.5514 3.70769 43.3736C3.81434 43.1958 3.96099 43.0559 4.14541 42.9548C4.33094 42.8537 4.53981 42.8037 4.77311 42.8037C5.00642 42.8037 5.20084 42.8514 5.38193 42.947C5.56302 43.0425 5.70633 43.1792 5.81077 43.3569C5.91631 43.5347 5.96852 43.748 5.96852 43.9957C5.96852 44.0213 5.96741 44.0502 5.96408 44.0835C5.96075 44.1168 5.95853 44.1468 5.95519 44.1757H4.08764V43.7869H5.60412L5.34749 43.9024C5.34749 43.7824 5.32305 43.6791 5.27527 43.5902C5.22639 43.5025 5.15973 43.4325 5.07419 43.3825C4.98864 43.3325 4.88865 43.3081 4.77533 43.3081C4.66202 43.3081 4.56092 43.3325 4.47426 43.3825C4.3876 43.4325 4.31983 43.5025 4.27095 43.5914C4.22207 43.6813 4.19874 43.7869 4.19874 43.9091V44.0113C4.19874 44.1368 4.22651 44.2468 4.28206 44.3424C4.33761 44.4379 4.41538 44.5101 4.51648 44.5601C4.61758 44.6101 4.73645 44.6346 4.8731 44.6346C4.99531 44.6346 5.10307 44.6157 5.19528 44.579C5.2875 44.5423 5.37304 44.4868 5.4497 44.4124L5.8041 44.7968C5.69856 44.9167 5.56635 45.0078 5.40637 45.0723C5.24639 45.1367 5.06308 45.1689 4.85533 45.1689L4.85866 45.1712Z" fill="#003399"/>
<path d="M6.41403 45.1367V41.9671H7.08061V45.1367H6.41403Z" fill="#003399"/>
<path d="M8.6782 45.0256C8.46489 45.0256 8.27158 44.979 8.09938 44.8868C7.92718 44.7945 7.78942 44.6646 7.68498 44.4979C7.58055 44.3313 7.52945 44.1368 7.52945 43.9146C7.52945 43.6925 7.58166 43.4936 7.68498 43.3269C7.78942 43.1603 7.92718 43.0314 8.09938 42.9403C8.27158 42.8492 8.46489 42.8037 8.6782 42.8037C8.87151 42.8037 9.0426 42.8426 9.19036 42.9214C9.33812 42.9992 9.45366 43.1203 9.53698 43.2847C9.61919 43.448 9.66141 43.6591 9.66141 43.9146C9.66141 44.1702 9.62031 44.3768 9.53698 44.5401C9.45477 44.7034 9.33923 44.8256 9.19036 44.9056C9.0426 44.9856 8.87151 45.0256 8.6782 45.0256ZM8.78041 45.9999C8.56377 45.9999 8.3549 45.9733 8.15493 45.9211C7.95384 45.8689 7.78719 45.7889 7.65276 45.6844L7.91718 45.2056C8.01383 45.2856 8.13715 45.3489 8.28713 45.3956C8.43711 45.4422 8.58376 45.4656 8.7293 45.4656C8.96594 45.4656 9.13703 45.4134 9.24368 45.3078C9.35034 45.2023 9.40366 45.0456 9.40366 44.8379V44.4924L9.44588 43.9158L9.43699 43.3347V42.8392H10.0691V44.7534C10.0691 45.1812 9.95804 45.4956 9.73585 45.6978C9.51365 45.9 9.1948 46.0011 8.77929 46.0011L8.78041 45.9999ZM8.8104 44.479C8.92706 44.479 9.03149 44.4557 9.12259 44.409C9.21369 44.3624 9.28479 44.2957 9.33589 44.2102C9.387 44.1246 9.41255 44.0269 9.41255 43.9158C9.41255 43.8047 9.387 43.7024 9.33589 43.6191C9.28479 43.5347 9.21369 43.4691 9.12259 43.4225C9.03149 43.3758 8.92706 43.3525 8.8104 43.3525C8.69375 43.3525 8.58932 43.3758 8.49822 43.4225C8.40712 43.4691 8.3349 43.5347 8.28269 43.6191C8.22936 43.7036 8.20381 43.8024 8.20381 43.9158C8.20381 44.0291 8.23047 44.1246 8.28269 44.2102C8.3349 44.2957 8.40712 44.3624 8.49822 44.409C8.58932 44.4557 8.69375 44.479 8.8104 44.479Z" fill="#003399"/>
<path d="M11.0235 42.517C10.9013 42.517 10.8013 42.4815 10.7246 42.4104C10.648 42.3393 10.6091 42.2504 10.6091 42.146C10.6091 42.0415 10.648 41.9527 10.7246 41.8816C10.8013 41.8105 10.9013 41.7749 11.0235 41.7749C11.1457 41.7749 11.2457 41.8082 11.3223 41.8749C11.399 41.9416 11.4379 42.0282 11.4379 42.1337C11.4379 42.2448 11.4001 42.3371 11.3245 42.4093C11.249 42.4815 11.149 42.5181 11.0235 42.5181V42.517ZM10.6902 45.1367V42.8381H11.3568V45.1367H10.6902Z" fill="#003399"/>
<path d="M12.9466 45.1712C12.7555 45.1712 12.5855 45.1345 12.4355 45.0601C12.2855 44.9856 12.17 44.8723 12.0878 44.7201C12.0056 44.5679 11.9634 44.3735 11.9634 44.1368V42.8381H12.6299V44.0391C12.6299 44.2302 12.671 44.3701 12.7521 44.4601C12.8332 44.5501 12.9477 44.5946 13.0966 44.5946C13.1988 44.5946 13.2899 44.5723 13.3699 44.5279C13.4498 44.4835 13.5121 44.4157 13.5576 44.3224C13.6032 44.2302 13.6265 44.1135 13.6265 43.9746V42.8381H14.2931V45.1367H13.6609V44.5046L13.7765 44.6879C13.6998 44.8479 13.5865 44.9679 13.4365 45.049C13.2865 45.1301 13.1243 45.1712 12.9477 45.1712H12.9466Z" fill="#003399"/>
<path d="M17.856 42.8037C18.0382 42.8037 18.2004 42.8403 18.3404 42.9125C18.4815 42.9848 18.5926 43.0959 18.6737 43.2458C18.7548 43.3958 18.7959 43.5869 18.7959 43.8202V45.1356H18.1293V43.9224C18.1293 43.7369 18.0904 43.6002 18.0137 43.5125C17.9371 43.4247 17.8282 43.3803 17.6893 43.3803C17.5927 43.3803 17.506 43.4025 17.4282 43.4469C17.3516 43.4914 17.2916 43.5569 17.2483 43.6458C17.2061 43.7347 17.1838 43.8469 17.1838 43.9835V45.1367H16.5172V43.9235C16.5172 43.738 16.4795 43.6014 16.4039 43.5136C16.3284 43.4258 16.2206 43.3814 16.0817 43.3814C15.9851 43.3814 15.8984 43.4036 15.8207 43.448C15.744 43.4925 15.684 43.558 15.6407 43.6469C15.5985 43.7358 15.5763 43.848 15.5763 43.9846V45.1378H14.9097V42.8392H15.5463V43.4669L15.4263 43.2836C15.5063 43.127 15.6196 43.0081 15.7662 42.927C15.9129 42.8459 16.0806 42.8048 16.2684 42.8048C16.4795 42.8048 16.6639 42.8581 16.8217 42.9648C16.9794 43.0714 17.0838 43.2347 17.1361 43.4536L16.9016 43.3892C16.9783 43.2103 17.1016 43.067 17.2716 42.9614C17.4416 42.8559 17.6349 42.8037 17.8549 42.8037H17.856Z" fill="#003399"/>
<path d="M19.2058 45.1367V44.6879L20.359 43.598C20.4501 43.5158 20.5168 43.4414 20.5601 43.3758C20.6023 43.3103 20.6323 43.2503 20.6479 43.1958C20.6634 43.1414 20.6712 43.0914 20.6712 43.0459C20.6712 42.9259 20.6301 42.8348 20.549 42.7703C20.4679 42.7059 20.349 42.6737 20.1924 42.6737C20.0668 42.6737 19.9513 42.6981 19.8446 42.7459C19.738 42.7948 19.6469 42.8703 19.5735 42.9725L19.0692 42.6481C19.1825 42.477 19.3425 42.3415 19.548 42.2426C19.7535 42.1426 19.9891 42.0926 20.2568 42.0926C20.479 42.0926 20.6734 42.1293 20.8401 42.2015C21.0067 42.2737 21.1367 42.3759 21.2289 42.507C21.3211 42.6381 21.3678 42.7948 21.3678 42.977C21.3678 43.0736 21.3556 43.1703 21.3311 43.2658C21.3067 43.3614 21.2589 43.4614 21.1856 43.5669C21.1134 43.6725 21.0067 43.7902 20.8678 43.9213L19.9113 44.8223L19.7791 44.5701H21.4666V45.1345H19.2069L19.2058 45.1367Z" fill="#003399"/>
<path d="M21.6755 44.0435L23.0853 42.1471H23.8119L22.4321 44.0435L22.0944 43.9458H24.4485V44.5101H21.6755V44.0435ZM23.2853 45.1367V44.509L23.3064 43.9446V43.3847H23.9597V45.1367H23.2842H23.2853Z" fill="#003399"/>
<path d="M25.1318 45.1712C25.0173 45.1712 24.9207 45.1323 24.8396 45.0534C24.7585 44.9756 24.7174 44.8745 24.7174 44.7523C24.7174 44.6301 24.7585 44.5312 24.8396 44.4557C24.9207 44.3801 25.0184 44.3424 25.1318 44.3424C25.2451 44.3424 25.3473 44.3801 25.4262 44.4557C25.5062 44.5312 25.5462 44.6301 25.5462 44.7523C25.5462 44.8745 25.5062 44.9756 25.4262 45.0534C25.3462 45.1323 25.2484 45.1712 25.1318 45.1712Z" fill="#003399"/>
<path d="M27.1093 45.1712C26.8471 45.1712 26.6171 45.1201 26.4194 45.0167C26.2216 44.9145 26.0683 44.7734 25.9606 44.5957C25.8528 44.4179 25.7983 44.2146 25.7983 43.9869C25.7983 43.7591 25.8517 43.5514 25.9583 43.3736C26.065 43.1958 26.2116 43.0559 26.3961 42.9548C26.5816 42.8537 26.7905 42.8037 27.0238 42.8037C27.2571 42.8037 27.4515 42.8514 27.6326 42.947C27.8137 43.0425 27.957 43.1792 28.0614 43.3569C28.167 43.5347 28.2192 43.748 28.2192 43.9957C28.2192 44.0213 28.2181 44.0502 28.2147 44.0835C28.2114 44.1168 28.2092 44.1468 28.2058 44.1757H26.3383V43.7869H27.8548L27.5981 43.9024C27.5981 43.7824 27.5737 43.6791 27.5259 43.5902C27.477 43.5025 27.4104 43.4325 27.3248 43.3825C27.2393 43.3325 27.1393 43.3081 27.026 43.3081C26.9127 43.3081 26.8116 43.3325 26.7249 43.3825C26.6382 43.4325 26.5705 43.5025 26.5216 43.5914C26.4727 43.6813 26.4494 43.7869 26.4494 43.9091V44.0113C26.4494 44.1368 26.4772 44.2468 26.5327 44.3424C26.5883 44.4379 26.666 44.5101 26.7671 44.5601C26.8682 44.6101 26.9871 44.6346 27.1237 44.6346C27.246 44.6346 27.3537 44.6157 27.4459 44.579C27.5381 44.5423 27.6237 44.4868 27.7003 44.4124L28.0547 44.7968C27.9492 44.9167 27.817 45.0078 27.657 45.0723C27.497 45.1367 27.3137 45.1689 27.106 45.1689L27.1093 45.1712Z" fill="#003399"/>
<path d="M29.6346 45.1712C29.4435 45.1712 29.2735 45.1345 29.1235 45.0601C28.9735 44.9856 28.858 44.8723 28.7758 44.7201C28.6936 44.5679 28.6513 44.3735 28.6513 44.1368V42.8381H29.3179V44.0391C29.3179 44.2302 29.359 44.3701 29.4401 44.4601C29.5212 44.5501 29.6357 44.5946 29.7845 44.5946C29.8867 44.5946 29.9778 44.5723 30.0578 44.5279C30.1378 44.4835 30.2 44.4157 30.2456 44.3224C30.2911 44.2302 30.3145 44.1135 30.3145 43.9746V42.8381H30.9811V45.1367H30.3489V44.5046L30.4645 44.6879C30.3878 44.8479 30.2745 44.9679 30.1245 45.049C29.9745 45.1301 29.8123 45.1712 29.6357 45.1712H29.6346Z" fill="#003399"/>
</g>
<defs>
<clipPath id="clip0_2700_5751">
<rect width="30.2297" height="46" fill="white" transform="translate(0.770264)"/>
</clipPath>
</defs>
</svg>
