<svg width="51" height="46" viewBox="0 0 51 46" fill="none" xmlns="http://www.w3.org/2000/svg">
<g clip-path="url(#clip0_2450_4408)">
<path d="M15.3042 22.3045C15.3042 22.3045 15.2849 22.3045 15.2753 22.3045L10.5015 21.4114C10.5015 21.4114 10.2798 21.3953 10.1802 21.2154C10.0967 21.0612 10.0967 20.907 10.0967 20.891V19.0695C10.0967 18.9795 10.1674 18.9088 10.2573 18.9088C10.3473 18.9088 10.418 18.9795 10.418 19.0695V20.8942C10.418 20.8942 10.418 20.9809 10.4597 21.0612C10.4694 21.0773 10.5176 21.0901 10.5368 21.0934L15.3331 21.9896C15.4199 22.0057 15.4777 22.0892 15.4616 22.176C15.4455 22.2531 15.3781 22.3077 15.3042 22.3077V22.3045Z" fill="#878787"/>
<path d="M13.8778 19.0277C13.8778 19.0277 13.8618 19.0277 13.8521 19.0277L10.5015 18.4848C10.5015 18.4848 10.2766 18.4687 10.177 18.2888C10.0935 18.1346 10.0935 17.9804 10.0935 17.9644V16.1429C10.0935 16.0529 10.1642 15.9822 10.2541 15.9822C10.3441 15.9822 10.4148 16.0529 10.4148 16.1429V17.9676C10.4148 17.9676 10.4148 18.0543 10.4565 18.1346C10.4662 18.1507 10.5143 18.1635 10.5336 18.1668L13.9003 18.7097C13.9871 18.7225 14.0481 18.806 14.032 18.8928C14.0192 18.9731 13.9517 19.0277 13.8746 19.0277H13.8778Z" fill="#878787"/>
<path d="M12.4675 15.7252C12.4675 15.7252 12.4579 15.7252 12.4547 15.7252L10.5143 15.5582C10.4951 15.5582 10.2766 15.5389 10.177 15.3622C10.0935 15.208 10.0935 15.0538 10.0935 15.0378V13.2163C10.0935 13.1263 10.1642 13.0556 10.2541 13.0556C10.3441 13.0556 10.4148 13.1263 10.4148 13.2163V15.041C10.4148 15.041 10.4148 15.1277 10.4565 15.208C10.4662 15.2241 10.5143 15.2369 10.5336 15.2402L12.4772 15.4072C12.5639 15.4136 12.6314 15.4939 12.625 15.5807C12.6185 15.6642 12.5479 15.7285 12.4643 15.7285L12.4675 15.7252Z" fill="#878787"/>
<path d="M11.9568 12.5095H10.2573C10.1674 12.5095 10.0967 12.4388 10.0967 12.3489C10.0967 12.2589 10.1674 12.1883 10.2573 12.1883H11.9568C12.0467 12.1883 12.1174 12.2589 12.1174 12.3489C12.1174 12.4388 12.0467 12.5095 11.9568 12.5095Z" fill="#878787"/>
<path d="M10.2573 5.78893C10.1674 5.78893 10.0967 5.71826 10.0967 5.62831V3.8036C10.0967 3.8036 10.0967 3.63655 10.1802 3.48235C10.2798 3.30245 10.4983 3.28638 10.5208 3.28638L15.2753 2.39652C15.362 2.38045 15.4455 2.43828 15.4616 2.52502C15.4777 2.61176 15.4199 2.69528 15.3331 2.71134L10.5593 3.60442C10.5111 3.60764 10.4694 3.6237 10.4597 3.63655C10.418 3.71365 10.418 3.79717 10.418 3.79717V5.62831C10.418 5.71826 10.3473 5.78893 10.2573 5.78893Z" fill="#878787"/>
<path d="M10.2573 8.71553C10.1674 8.71553 10.0967 8.64486 10.0967 8.55491V6.7302C10.0967 6.7302 10.0967 6.56315 10.1802 6.40895C10.2798 6.22905 10.4983 6.21299 10.5208 6.21299L13.0458 5.80178C13.1325 5.78572 13.2161 5.84676 13.2289 5.9335C13.2418 6.02023 13.1839 6.10376 13.0972 6.11661L10.5529 6.52781C10.5079 6.53102 10.4662 6.54709 10.4565 6.55994C10.4148 6.63704 10.4148 6.72377 10.4148 6.72377V8.5517C10.4148 8.64165 10.3441 8.71232 10.2541 8.71232L10.2573 8.71553Z" fill="#878787"/>
<path d="M10.2573 11.6421C10.1674 11.6421 10.0967 11.5715 10.0967 11.4815V9.6568C10.0967 9.6568 10.0967 9.48975 10.1802 9.33555C10.2798 9.15565 10.4983 9.13959 10.5208 9.13959L12.1142 9.00145C12.2009 8.99502 12.2812 9.05927 12.2876 9.14922C12.2941 9.23917 12.2298 9.31627 12.1399 9.3227L10.54 9.46084C10.5079 9.46084 10.4662 9.4769 10.4565 9.49296C10.4148 9.57006 10.4148 9.6568 10.4148 9.6568V11.4847C10.4148 11.5747 10.3441 11.6453 10.2541 11.6453L10.2573 11.6421Z" fill="#878787"/>
<path d="M9.03016 20.2163C9.03016 20.2163 9.01088 20.2163 9.00125 20.2163L5.24582 19.5128C5.24582 19.5128 5.05628 19.4999 4.96954 19.3425C4.89886 19.214 4.89886 19.0855 4.89886 19.0695V17.6367C4.89886 17.5467 4.96954 17.4761 5.05949 17.4761C5.14944 17.4761 5.22012 17.5467 5.22012 17.6367V19.0727C5.22012 19.0727 5.22012 19.1337 5.24903 19.1851C5.25224 19.1851 5.27794 19.1915 5.28115 19.1915L9.05907 19.8983C9.14581 19.9144 9.20363 19.9979 9.18757 20.0846C9.17151 20.1617 9.10405 20.2163 9.03016 20.2163Z" fill="#B2B2B2"/>
<path d="M9.03016 17.8198C9.03016 17.8198 9.0141 17.8198 9.00446 17.8198L5.24903 17.2126C5.24903 17.2126 5.05628 17.1998 4.96954 17.0424C4.89886 16.9139 4.89886 16.7854 4.89886 16.7693V15.3365C4.89886 15.2466 4.96954 15.1759 5.05949 15.1759C5.14944 15.1759 5.22012 15.2466 5.22012 15.3365V16.7725C5.22012 16.7725 5.22012 16.8336 5.24903 16.885C5.24903 16.885 5.27152 16.8914 5.28437 16.8914L9.05586 17.5018C9.1426 17.5146 9.20363 17.5981 9.18757 17.6849C9.17472 17.7652 9.10726 17.8198 9.03016 17.8198Z" fill="#B2B2B2"/>
<path d="M9.03016 15.2305C9.03016 15.2305 9.02052 15.2305 9.01731 15.2305L5.26188 14.9061C5.26188 14.9061 5.05628 14.89 4.96954 14.7326C4.89886 14.6041 4.89886 14.4756 4.89886 14.4595V13.0267C4.89886 12.9368 4.96954 12.8661 5.05949 12.8661C5.14944 12.8661 5.22012 12.9368 5.22012 13.0267V14.4627C5.22012 14.4627 5.22012 14.5238 5.24903 14.5752C5.25224 14.5752 5.27794 14.5816 5.28115 14.5816L9.04301 14.9061C9.13296 14.9125 9.19721 14.9928 9.19078 15.0795C9.18436 15.1631 9.11368 15.2273 9.03016 15.2273V15.2305Z" fill="#B2B2B2"/>
<path d="M9.04622 12.5095H5.05628C4.96633 12.5095 4.89565 12.4388 4.89565 12.3489C4.89565 12.2589 4.96633 12.1883 5.05628 12.1883H9.04622C9.13617 12.1883 9.20685 12.2589 9.20685 12.3489C9.20685 12.4388 9.13617 12.5095 9.04622 12.5095Z" fill="#B2B2B2"/>
<path d="M5.05628 7.22171C4.96633 7.22171 4.89565 7.15104 4.89565 7.06109V5.62509C4.89565 5.62509 4.89565 5.48374 4.96633 5.35524C5.05307 5.19783 5.2426 5.18498 5.26188 5.18177L8.99803 4.48144C9.08477 4.46538 9.1683 4.5232 9.18436 4.60994C9.20042 4.69668 9.1426 4.7802 9.05586 4.79627L5.30043 5.49981C5.2683 5.50302 5.24903 5.50944 5.2426 5.51587C5.2169 5.56406 5.2169 5.62188 5.2169 5.62188V7.06109C5.2169 7.15104 5.14623 7.22171 5.05628 7.22171Z" fill="#B2B2B2"/>
<path d="M5.05628 9.52509C4.96633 9.52509 4.89565 9.45441 4.89565 9.36446V7.92847C4.89565 7.92847 4.89565 7.78712 4.96633 7.65862C5.05307 7.5012 5.2426 7.48835 5.26509 7.48514L9.00446 6.87798C9.09441 6.86191 9.17472 6.92295 9.18757 7.00969C9.20042 7.09643 9.1426 7.17995 9.05586 7.1928L5.30043 7.79997C5.27152 7.79997 5.25224 7.8096 5.24582 7.81282C5.22012 7.861 5.22012 7.91883 5.22012 7.91883V9.35804C5.22012 9.44799 5.14944 9.51866 5.05949 9.51866L5.05628 9.52509Z" fill="#B2B2B2"/>
<path d="M5.05628 11.8285C4.96633 11.8285 4.89565 11.7578 4.89565 11.6678V10.2318C4.89565 10.2318 4.89565 10.0905 4.96633 9.96199C5.05307 9.80458 5.2426 9.79173 5.26188 9.78851L9.0141 9.46405C9.10405 9.45441 9.18115 9.52188 9.18757 9.61183C9.194 9.70178 9.12975 9.77888 9.0398 9.7853L5.28437 10.1098C5.2683 10.1098 5.24903 10.1162 5.2426 10.1226C5.2169 10.1708 5.2169 10.2286 5.2169 10.2286V11.6678C5.2169 11.7578 5.14623 11.8285 5.05628 11.8285Z" fill="#B2B2B2"/>
<path d="M3.83231 17.7877C3.83231 17.7877 3.81303 17.7877 3.8034 17.7877L1.23017 17.3058C1.23017 17.3058 1.07597 17.2929 1.0053 17.1644C0.950684 17.0649 0.950684 16.9685 0.950684 16.9492V15.9694C0.950684 15.8794 1.02136 15.8088 1.11131 15.8088C1.20126 15.8088 1.27194 15.8794 1.27194 15.9694V16.9524C1.27194 16.9524 1.27194 16.9845 1.28479 17.007L3.86122 17.4696C3.94796 17.4857 4.00579 17.5692 3.98972 17.656C3.97366 17.7331 3.9062 17.7877 3.83231 17.7877Z" fill="#C6C6C6"/>
<path d="M3.83231 16.1461C3.83231 16.1461 3.81625 16.1461 3.80661 16.1461L1.23338 15.7285C1.23338 15.7285 1.07597 15.7124 1.0053 15.5871C0.950684 15.4875 0.950684 15.3911 0.950684 15.3719V14.392C0.950684 14.3021 1.02136 14.2314 1.11131 14.2314C1.20126 14.2314 1.27194 14.3021 1.27194 14.392V15.3751C1.27194 15.3751 1.27194 15.4072 1.28479 15.4297L3.85801 15.828C3.94475 15.8409 4.00579 15.9244 3.98972 16.0112C3.97687 16.0915 3.90941 16.1461 3.83231 16.1461Z" fill="#C6C6C6"/>
<path d="M3.83231 14.3728C3.83231 14.3728 3.82267 14.3728 3.81946 14.3728L1.24623 14.1511C1.22375 14.1511 1.07597 14.135 1.0053 14.0065C0.950684 13.9102 0.950684 13.8138 0.950684 13.7945V12.8147C0.950684 12.7248 1.02136 12.6541 1.11131 12.6541C1.20126 12.6541 1.27194 12.7248 1.27194 12.8147V13.7977C1.27194 13.7977 1.27194 13.8299 1.28479 13.8523L3.84516 14.0515C3.9319 14.0579 3.99936 14.1383 3.99294 14.225C3.98651 14.3085 3.91583 14.3728 3.83231 14.3728Z" fill="#C6C6C6"/>
<path d="M3.84516 12.5095H1.11131C1.02136 12.5095 0.950684 12.4356 0.950684 12.3489C0.950684 12.2621 1.02136 12.1883 1.11131 12.1883H3.84516C3.93511 12.1883 4.00579 12.2589 4.00579 12.3489C4.00579 12.4388 3.93511 12.5095 3.84516 12.5095Z" fill="#C6C6C6"/>
<path d="M1.11131 8.8858C1.02136 8.8858 0.950684 8.81512 0.950684 8.72517V7.74214C0.950684 7.74214 0.950684 7.6297 1.0053 7.53333C1.07597 7.40483 1.22053 7.38877 1.24945 7.38877L3.8034 6.9101C3.89013 6.89404 3.97366 6.95186 3.98972 7.0386C4.00579 7.12534 3.94796 7.20886 3.86122 7.22493L1.288 7.7068C1.288 7.7068 1.27194 7.7325 1.27194 7.74214V8.72838C1.27194 8.81833 1.20126 8.88901 1.11131 8.88901V8.8858Z" fill="#C6C6C6"/>
<path d="M1.11131 10.4631C1.02136 10.4631 0.950684 10.3925 0.950684 10.3025V9.31949C0.950684 9.31949 0.950684 9.20705 1.0053 9.11067C1.07597 8.98217 1.22053 8.96611 1.24945 8.96611L3.80661 8.5517C3.89656 8.53563 3.97687 8.59667 3.98972 8.68341C4.00257 8.77015 3.94475 8.85367 3.85801 8.86652L1.28479 9.28415C1.28479 9.28415 1.27194 9.30985 1.27194 9.31627V10.3025C1.27194 10.3925 1.20126 10.4631 1.11131 10.4631Z" fill="#C6C6C6"/>
<path d="M1.11131 12.0437C1.02136 12.0437 0.950684 11.9698 0.950684 11.8831V10.9C0.950684 10.9 0.950684 10.7876 1.0053 10.6912C1.07597 10.5627 1.22053 10.5467 1.24945 10.5467L3.81946 10.325C3.90941 10.3186 3.98651 10.3828 3.99294 10.4728C3.99936 10.5627 3.93511 10.6398 3.84516 10.6463L1.27194 10.8679C1.27194 10.8679 1.27194 10.8936 1.27194 10.9V11.8863C1.27194 11.9762 1.20126 12.0469 1.11131 12.0469V12.0437Z" fill="#C6C6C6"/>
<path d="M36.4168 22.3045C36.3397 22.3045 36.2723 22.2499 36.2594 22.1728C36.2434 22.086 36.3012 22.0025 36.3879 21.9864L41.1617 21.0934C41.2099 21.0901 41.2517 21.0741 41.2613 21.058C41.3031 20.9809 41.3031 20.8942 41.3031 20.8942V19.0663C41.3031 18.9763 41.3738 18.9056 41.4637 18.9056C41.5537 18.9056 41.6243 18.9763 41.6243 19.0663V20.891C41.6243 20.891 41.6243 21.058 41.5408 21.2122C41.4412 21.3921 41.2228 21.4082 41.2003 21.4082L36.4458 22.298C36.4458 22.298 36.4265 22.298 36.4168 22.298V22.3045Z" fill="#878787"/>
<path d="M37.8432 19.0277C37.7661 19.0277 37.6986 18.9731 37.6858 18.8928C37.6729 18.806 37.7308 18.7225 37.8175 18.7097L41.1682 18.1668C41.2131 18.1635 41.2549 18.1475 41.2645 18.1346C41.3063 18.0575 41.3063 17.9708 41.3063 17.9708V16.1429C41.3063 16.0529 41.377 15.9822 41.4669 15.9822C41.5569 15.9822 41.6275 16.0529 41.6275 16.1429V17.9676C41.6275 17.9676 41.6275 18.1346 41.544 18.2888C41.4444 18.4687 41.226 18.4848 41.2035 18.4848L37.8689 19.0245C37.8689 19.0245 37.8528 19.0245 37.8432 19.0245V19.0277Z" fill="#878787"/>
<path d="M39.2535 15.7252C39.17 15.7252 39.0993 15.661 39.0929 15.5775C39.0864 15.4875 39.1507 15.4104 39.2406 15.404L41.181 15.2369C41.2131 15.2369 41.2549 15.2209 41.2645 15.2048C41.3063 15.1277 41.3063 15.041 41.3063 15.041V13.2131C41.3063 13.1231 41.377 13.0524 41.4669 13.0524C41.5569 13.0524 41.6275 13.1231 41.6275 13.2131V15.0378C41.6275 15.0378 41.6275 15.2048 41.544 15.359C41.4444 15.5389 41.226 15.555 41.2035 15.555L39.2696 15.722C39.2696 15.722 39.2599 15.722 39.2567 15.722L39.2535 15.7252Z" fill="#878787"/>
<path d="M41.4669 12.5095H39.7675C39.6776 12.5095 39.6069 12.4388 39.6069 12.3489C39.6069 12.2589 39.6776 12.1883 39.7675 12.1883H41.4669C41.5569 12.1883 41.6275 12.2589 41.6275 12.3489C41.6275 12.4388 41.5569 12.5095 41.4669 12.5095Z" fill="#878787"/>
<path d="M41.4669 5.78893C41.377 5.78893 41.3063 5.71826 41.3063 5.62831V3.8036C41.3063 3.8036 41.3063 3.71686 41.2645 3.63655C41.2549 3.62049 41.2067 3.60764 41.1874 3.60442L36.3911 2.70813C36.3044 2.69207 36.2466 2.60854 36.2626 2.52181C36.2787 2.43507 36.3622 2.37724 36.449 2.3933L41.2228 3.28638C41.2228 3.28638 41.4444 3.30245 41.544 3.47913C41.6275 3.63334 41.6275 3.78754 41.6275 3.8036V5.62509C41.6275 5.71505 41.5569 5.78572 41.4669 5.78572V5.78893Z" fill="#878787"/>
<path d="M41.4669 8.71553C41.377 8.71553 41.3063 8.64486 41.3063 8.55491V6.7302C41.3063 6.7302 41.3063 6.64346 41.2645 6.56315C41.2581 6.5503 41.2131 6.53424 41.1842 6.53102L38.6271 6.11661C38.5403 6.10376 38.4793 6.02023 38.4953 5.9335C38.5082 5.84676 38.5885 5.78572 38.6785 5.80178L41.2228 6.21299C41.2228 6.21299 41.4476 6.22905 41.5472 6.40895C41.6308 6.56315 41.6308 6.71735 41.6308 6.73341V8.55491C41.6308 8.64486 41.5601 8.71553 41.4701 8.71553H41.4669Z" fill="#878787"/>
<path d="M41.4669 11.6421C41.377 11.6421 41.3063 11.5715 41.3063 11.4815V9.6568C41.3063 9.6568 41.3063 9.57006 41.2645 9.48975C41.2581 9.4769 41.2131 9.46084 41.1842 9.45763L39.5812 9.31949C39.4912 9.31306 39.427 9.23275 39.4334 9.14601C39.4398 9.05606 39.5169 8.99181 39.6069 8.99824L41.2067 9.13637C41.226 9.13637 41.4444 9.15244 41.544 9.33234C41.6275 9.48654 41.6275 9.64074 41.6275 9.6568V11.4783C41.6275 11.5682 41.5569 11.6389 41.4669 11.6389V11.6421Z" fill="#878787"/>
<path d="M42.6909 20.2163C42.6138 20.2163 42.5463 20.1617 42.5335 20.0846C42.5174 19.9979 42.5752 19.9144 42.662 19.8983L46.4174 19.1948C46.4495 19.1915 46.4688 19.1851 46.4752 19.1787C46.5009 19.1305 46.5009 19.0727 46.5009 19.0727V17.6335C46.5009 17.5435 46.5716 17.4728 46.6616 17.4728C46.7515 17.4728 46.8222 17.5435 46.8222 17.6335V19.0695C46.8222 19.0695 46.8222 19.2108 46.7515 19.3393C46.6648 19.4967 46.4752 19.5096 46.4527 19.5128L42.7166 20.2131C42.7166 20.2131 42.6973 20.2131 42.6877 20.2131L42.6909 20.2163Z" fill="#B2B2B2"/>
<path d="M42.6909 17.8198C42.6138 17.8198 42.5463 17.7652 42.5335 17.6849C42.5206 17.5981 42.5785 17.5146 42.6652 17.5018L46.4206 16.8946C46.4495 16.8946 46.4688 16.885 46.4752 16.8817C46.5009 16.8336 46.5009 16.7757 46.5009 16.7757V15.3365C46.5009 15.2466 46.5716 15.1759 46.6616 15.1759C46.7515 15.1759 46.8222 15.2466 46.8222 15.3365V16.7725C46.8222 16.7725 46.8222 16.9139 46.7515 17.0424C46.6648 17.1998 46.4752 17.2126 46.456 17.2158L42.7166 17.823C42.7166 17.823 42.7005 17.823 42.6909 17.823V17.8198Z" fill="#B2B2B2"/>
<path d="M42.6909 15.2305C42.6074 15.2305 42.5367 15.1663 42.5303 15.0827C42.5238 14.9928 42.5881 14.9157 42.678 14.9093L46.4335 14.5848C46.4495 14.5848 46.4688 14.5784 46.4752 14.5719C46.5009 14.5238 46.5009 14.4659 46.5009 14.4659V13.0267C46.5009 12.9368 46.5716 12.8661 46.6616 12.8661C46.7515 12.8661 46.8222 12.9368 46.8222 13.0267V14.4627C46.8222 14.4627 46.8222 14.6041 46.7515 14.7326C46.6648 14.89 46.4752 14.9028 46.4527 14.9061L42.7005 15.2305C42.7005 15.2305 42.6909 15.2305 42.6877 15.2305H42.6909Z" fill="#B2B2B2"/>
<path d="M46.6648 12.5095H42.6748C42.5849 12.5095 42.5142 12.4388 42.5142 12.3489C42.5142 12.2589 42.5849 12.1883 42.6748 12.1883H46.6648C46.7547 12.1883 46.8254 12.2589 46.8254 12.3489C46.8254 12.4388 46.7547 12.5095 46.6648 12.5095Z" fill="#B2B2B2"/>
<path d="M46.6648 7.22171C46.5748 7.22171 46.5041 7.15104 46.5041 7.06109V5.62509C46.5041 5.62509 46.5041 5.56406 46.4752 5.51266C46.4752 5.51266 46.4527 5.50623 46.4399 5.50623L42.6652 4.79948C42.5785 4.78342 42.5206 4.69989 42.5367 4.61315C42.5527 4.52641 42.6395 4.46859 42.723 4.48465L46.4784 5.18819C46.4784 5.18819 46.668 5.20104 46.7547 5.35846C46.8254 5.48696 46.8254 5.61546 46.8254 5.63152V7.0643C46.8254 7.15425 46.7547 7.22493 46.6648 7.22493V7.22171Z" fill="#B2B2B2"/>
<path d="M46.6648 9.52509C46.5748 9.52509 46.5041 9.45441 46.5041 9.36446V7.92847C46.5041 7.92847 46.5041 7.86743 46.4752 7.81603C46.472 7.81603 46.4463 7.8096 46.4431 7.8096L42.6684 7.19923C42.5817 7.18638 42.5206 7.10285 42.5367 7.01611C42.5527 6.92938 42.6299 6.86834 42.7198 6.8844L46.4752 7.49157C46.4752 7.49157 46.668 7.50442 46.7547 7.66183C46.8254 7.79033 46.8254 7.91883 46.8254 7.93489V9.36767C46.8254 9.45762 46.7547 9.5283 46.6648 9.5283V9.52509Z" fill="#B2B2B2"/>
<path d="M46.6648 11.8285C46.5748 11.8285 46.5041 11.7578 46.5041 11.6678V10.2318C46.5041 10.2318 46.5041 10.1708 46.4752 10.1194C46.4752 10.1194 46.4527 10.113 46.4399 10.113L42.6812 9.78851C42.5945 9.78209 42.5271 9.70178 42.5335 9.61504C42.5399 9.5283 42.617 9.46084 42.7069 9.46726L46.4624 9.79173C46.4784 9.79173 46.668 9.80779 46.7547 9.9652C46.8254 10.0937 46.8254 10.2222 46.8254 10.2383V11.671C46.8254 11.761 46.7547 11.8317 46.6648 11.8317V11.8285Z" fill="#B2B2B2"/>
<path d="M47.8887 17.7877C47.8116 17.7877 47.7442 17.7331 47.7313 17.656C47.7153 17.5692 47.7731 17.4857 47.8598 17.4696L50.433 16.9878C50.433 16.9878 50.4491 16.9621 50.4491 16.9524V15.9662C50.4491 15.8762 50.5198 15.8056 50.6097 15.8056C50.6997 15.8056 50.7704 15.8762 50.7704 15.9662V16.9492C50.7704 16.9492 50.7704 17.0616 50.7158 17.158C50.6451 17.2865 50.4973 17.3026 50.4716 17.3026L47.9176 17.7813C47.9176 17.7813 47.8984 17.7813 47.8887 17.7813V17.7877Z" fill="#C6C6C6"/>
<path d="M47.8887 16.1461C47.8116 16.1461 47.7442 16.0915 47.7313 16.0112C47.7185 15.9244 47.7763 15.8409 47.863 15.828L50.4363 15.4104C50.4363 15.4104 50.4491 15.3847 50.4491 15.3783V14.392C50.4491 14.3021 50.5198 14.2314 50.6097 14.2314C50.6997 14.2314 50.7704 14.3021 50.7704 14.392V15.3751C50.7704 15.3751 50.7704 15.4875 50.7158 15.5839C50.6451 15.7124 50.4973 15.7285 50.4716 15.7285L47.9144 16.1429C47.9144 16.1429 47.8984 16.1429 47.8887 16.1429V16.1461Z" fill="#C6C6C6"/>
<path d="M47.8887 14.3728C47.8052 14.3728 47.7345 14.3085 47.7281 14.225C47.7217 14.135 47.7859 14.0579 47.8759 14.0515L50.4491 13.8299C50.4491 13.8299 50.4491 13.8042 50.4491 13.7977V12.8115C50.4491 12.7215 50.5198 12.6509 50.6097 12.6509C50.6997 12.6509 50.7704 12.7215 50.7704 12.8115V13.7945C50.7704 13.7945 50.7704 13.907 50.7158 14.0033C50.6451 14.1318 50.4973 14.1479 50.4716 14.1479L47.9016 14.3696C47.9016 14.3696 47.892 14.3696 47.8887 14.3696V14.3728Z" fill="#C6C6C6"/>
<path d="M50.6097 12.5095H47.8759C47.7859 12.5095 47.7153 12.4388 47.7153 12.3489C47.7153 12.2589 47.7859 12.1883 47.8759 12.1883H50.6097C50.6997 12.1883 50.7704 12.2589 50.7704 12.3489C50.7704 12.4388 50.6997 12.5095 50.6097 12.5095Z" fill="#C6C6C6"/>
<path d="M50.6097 8.8858C50.5198 8.8858 50.4491 8.81512 50.4491 8.72517V7.74214C50.4491 7.74214 50.4491 7.71002 50.4363 7.68753L47.8598 7.22493C47.7731 7.20886 47.7153 7.12534 47.7313 7.0386C47.7474 6.95186 47.8341 6.89404 47.9176 6.9101L50.4909 7.39198C50.4909 7.39198 50.6451 7.40483 50.7158 7.53333C50.7704 7.6297 50.7704 7.72608 50.7704 7.74535V8.72517C50.7704 8.81512 50.6997 8.8858 50.6097 8.8858Z" fill="#C6C6C6"/>
<path d="M50.6097 10.4631C50.5198 10.4631 50.4491 10.3925 50.4491 10.3025V9.31949C50.4491 9.31949 50.4491 9.28736 50.4363 9.26487L47.863 8.86652C47.7763 8.85367 47.7153 8.77015 47.7313 8.68341C47.7442 8.59667 47.8277 8.53563 47.9144 8.5517L50.4877 8.96932C50.4877 8.96932 50.6451 8.98217 50.7158 9.11067C50.7704 9.20705 50.7704 9.30342 50.7704 9.3227V10.3025C50.7704 10.3925 50.6997 10.4631 50.6097 10.4631Z" fill="#C6C6C6"/>
<path d="M50.6097 12.0437C50.5198 12.0437 50.4491 11.973 50.4491 11.8831V10.9C50.4491 10.9 50.4491 10.8679 50.4363 10.8454L47.8759 10.6463C47.7892 10.6398 47.7217 10.5595 47.7281 10.4728C47.7345 10.3828 47.8116 10.3186 47.9016 10.325L50.4748 10.5467C50.4973 10.5467 50.6451 10.5627 50.7158 10.6912C50.7704 10.7876 50.7704 10.884 50.7704 10.9033V11.8831C50.7704 11.973 50.6997 12.0437 50.6097 12.0437Z" fill="#C6C6C6"/>
<path d="M6.93239 37.6185H1.48717C1.17235 37.6185 1.11452 37.4997 1.11452 37.3037V28.0163C1.11452 27.8204 1.17556 27.6854 1.48717 27.6854H6.75249C7.00627 27.6854 7.11229 27.8204 7.11229 28.0163V29.3913C7.11229 29.5712 7.11229 29.69 6.78461 29.69H3.52391V31.4537H6.40875C6.66253 31.4537 6.75249 31.5437 6.75249 31.7364V33.1114C6.75249 33.2913 6.75249 33.439 6.40875 33.439H3.52391V35.6075H6.97736C7.23115 35.6075 7.29219 35.7264 7.29219 35.9223V37.2973C7.29219 37.4772 7.29219 37.6121 6.93239 37.6121V37.6185Z" fill="#9D9D9C"/>
<path d="M12.0178 36.9439C11.4203 37.5125 10.7007 37.7374 10.1481 37.7374C8.36838 37.7374 8.15957 36.6323 8.1435 35.3762V30.5606C8.1435 30.4257 8.15957 30.233 8.51616 30.233H10.0421C10.3698 30.233 10.4308 30.3679 10.4308 30.5606C10.4308 31.8778 10.4148 33.1917 10.4148 34.5088C10.4148 35.4501 10.6525 35.6011 11.0123 35.6011C11.295 35.6011 11.6708 35.4661 12.0885 35.2413V30.5446C12.0885 30.3968 12.1334 30.2297 12.4932 30.2297H13.9903C14.318 30.2297 14.3629 30.3647 14.3629 30.5574V37.3037C14.3629 37.4997 14.334 37.6185 14.0031 37.6185H12.4322C12.0885 37.6185 12.0885 37.4386 12.0885 37.3037V36.96C12.0596 36.96 12.0435 36.9439 12.0146 36.9439H12.0178Z" fill="#9D9D9C"/>
<path d="M20.2868 31.8007C20.3318 32.1733 20.3029 32.3243 19.8531 32.4303C19.0918 32.6102 18.3882 32.819 17.8196 33.0889V37.3069C17.8196 37.4418 17.8035 37.6217 17.4469 37.6217H15.921C15.5933 37.6217 15.5484 37.5029 15.5484 37.3069V30.5606C15.5484 30.3647 15.5933 30.233 15.921 30.233H17.4469C17.8067 30.233 17.8196 30.4289 17.8196 30.5606V31.1293L17.8646 31.1582C18.4332 30.5157 19.3295 30.1398 19.8081 30.1398C20.0041 30.1398 20.123 30.2137 20.1519 30.4996L20.2868 31.8007Z" fill="#9D9D9C"/>
<path d="M23.7595 37.7374C20.8426 37.7374 20.6338 35.479 20.6338 33.8181C20.6338 32.501 20.9325 30.0948 23.7595 30.0948C26.5866 30.0948 26.9913 32.0994 26.9913 33.8181C26.9913 35.5368 26.7504 37.7374 23.7595 37.7374ZM23.7885 32.0545C23.101 32.0545 22.9371 32.7259 22.9371 33.9081C22.9371 35.1931 23.101 35.7778 23.7595 35.7778C24.5081 35.7778 24.6719 35.1481 24.6719 33.9081C24.6719 32.668 24.537 32.0545 23.7885 32.0545Z" fill="#9D9D9C"/>
<path d="M34.7367 37.6185H33.1208C32.761 37.6185 32.716 37.4997 32.716 37.3037V33.4744H30.5187V37.3037C30.5187 37.4386 30.5026 37.6185 30.146 37.6185H28.5012C28.1864 37.6185 28.1286 37.4997 28.1286 37.3037V28.0163C28.1286 27.8204 28.1896 27.6854 28.5012 27.6854H30.146C30.5058 27.6854 30.5187 27.8653 30.5187 28.0163V31.4569H32.716V28.0163C32.716 27.8204 32.761 27.6854 33.1208 27.6854H34.7367C35.1094 27.6854 35.1254 27.8653 35.1254 28.0163V37.3037C35.1254 37.4386 35.1094 37.6185 34.7367 37.6185Z" fill="#9D9D9C"/>
<path d="M39.957 33.9852H38.9547V37.3069C38.9547 37.4418 38.9387 37.6217 38.5821 37.6217H36.9373C36.6096 37.6217 36.5486 37.5029 36.5486 37.3069V28.0195C36.5486 27.8236 36.6096 27.6886 36.9373 27.6886H39.3756C41.3802 27.6886 43.1278 28.3312 43.1278 30.7855C43.1278 32.1605 42.5752 33.9852 39.957 33.9852ZM39.6583 29.6933H38.9547V32.0416H39.6872C40.3458 32.0416 40.6895 31.6368 40.6895 30.8433C40.6895 30.0498 40.3008 29.6933 39.6583 29.6933Z" fill="#9D9D9C"/>
<path d="M47.7474 27.5666C48.6148 27.5666 49.601 27.7176 50.2756 28.0452C50.5744 28.1962 50.7543 28.3761 50.7093 28.7038L50.5455 29.5712C50.4845 29.8699 50.3495 29.931 49.9319 29.8699C49.2155 29.7961 48.377 29.735 47.9433 29.735C46.6262 29.735 46.3596 31.02 46.3596 32.652C46.3596 34.5217 46.6423 35.6139 47.9433 35.6139C48.573 35.6139 49.0934 35.5689 49.9608 35.479C50.3945 35.434 50.5005 35.5079 50.5744 35.7778L50.7543 36.5712C50.8282 36.915 50.6354 37.111 50.3367 37.2587C49.6653 37.5896 48.6469 37.7535 47.7506 37.7535C44.4899 37.7535 43.8185 35.1802 43.8185 32.6841C43.8185 30.188 44.461 27.5698 47.7506 27.5698L47.7474 27.5666Z" fill="#9D9D9C"/>
<path d="M2.04294 44.6154C1.7506 44.6154 1.33297 44.564 1.05991 44.4291C0.947471 44.368 0.941046 44.3102 0.963534 44.2138L1.03742 43.8701C1.05991 43.7641 1.09846 43.7576 1.21732 43.7737C1.47754 43.8026 1.73132 43.8347 1.93371 43.8347C2.38668 43.8347 2.51518 43.5874 2.51518 43.1633V39.7484C2.51518 39.6521 2.55373 39.6071 2.67902 39.6071H3.21551C3.35043 39.6071 3.37934 39.6585 3.37934 39.7484V43.295C3.37292 44.1239 2.97778 44.6154 2.04615 44.6154H2.04294Z" fill="#C6C6C6"/>
<path d="M5.53173 44.6058C4.18247 44.6058 4.0861 43.5328 4.0861 42.6622C4.0861 42.0133 4.20496 40.8214 5.53173 40.8214C6.8585 40.8214 7.01591 41.798 7.01591 42.6622C7.01591 43.5263 6.91954 44.6058 5.53173 44.6058ZM5.53815 41.5346C5.03058 41.5346 4.91814 41.9522 4.91814 42.7136C4.91814 43.4749 5.03058 43.8926 5.52852 43.8926C6.06501 43.8926 6.17745 43.4974 6.17745 42.7136C6.17745 41.9297 6.07143 41.5346 5.53494 41.5346H5.53815Z" fill="#C6C6C6"/>
<path d="M8.05998 40.3652C7.6809 40.3652 7.62629 40.15 7.62629 39.9251C7.62629 39.6874 7.71624 39.5011 8.05998 39.5011C8.43263 39.5011 8.50652 39.6713 8.50652 39.9251C8.50652 40.1564 8.43906 40.3652 8.05998 40.3652ZM8.31377 44.5479H7.82225C7.69696 44.5479 7.65199 44.503 7.65199 44.4066V41.0366C7.65199 40.9403 7.69696 40.8953 7.82225 40.8953H8.31377C8.43906 40.8953 8.47118 40.9563 8.47118 41.0366V44.4066C8.47118 44.4901 8.44227 44.5479 8.31377 44.5479Z" fill="#C6C6C6"/>
<path d="M9.99713 41.2069C10.2509 41.0142 10.6525 40.8278 10.9962 40.8278C11.9439 40.8278 12.0178 41.4896 12.0178 42.2446V44.4066C12.0178 44.4901 11.9889 44.5479 11.8604 44.5479H11.34C11.2275 44.5479 11.1825 44.503 11.1825 44.4066C11.1825 44.095 11.189 42.5594 11.189 42.251C11.189 41.7209 11.054 41.5892 10.7713 41.5892C10.5336 41.5892 10.1899 41.737 9.95858 41.8591V44.4098C9.95858 44.4933 9.92966 44.5511 9.80116 44.5511H9.28716C9.1683 44.5511 9.13938 44.5062 9.13938 44.4098V41.0399C9.13938 40.9435 9.1683 40.8985 9.28716 40.8985H9.80759C9.92002 40.8985 9.95536 40.9499 9.95536 41.0399V41.1973L9.9907 41.2133L9.99713 41.2069Z" fill="#C6C6C6"/>
<path d="M14.6745 44.2267C14.697 44.352 14.636 44.4066 14.5717 44.4419C14.3244 44.5672 13.9517 44.6058 13.7301 44.6058C13.0362 44.6058 12.8434 44.2556 12.8434 43.6902V41.5571H12.5543C12.4354 41.5571 12.4065 41.5121 12.4065 41.4093V41.0431C12.4065 40.9403 12.4354 40.8953 12.5543 40.8953H12.8531V40.1211C12.8531 40.0247 12.9205 39.9862 13.0105 39.9637L13.4795 39.8223C13.5919 39.7934 13.6594 39.8287 13.6594 39.9476V40.8953H14.3212C14.4561 40.8953 14.4625 40.9467 14.4625 41.0431V41.3997C14.4625 41.5025 14.4561 41.5571 14.3212 41.5571H13.6498V43.3754C13.6498 43.7641 13.7172 43.8604 14.0063 43.8604C14.0899 43.8604 14.3051 43.838 14.44 43.8219C14.5878 43.8058 14.6199 43.838 14.6328 43.9408L14.6778 44.2235L14.6745 44.2267Z" fill="#C6C6C6"/>
<path d="M19.3038 42.7489V39.7516C19.3038 39.6488 19.3423 39.6039 19.474 39.6039H19.9816C20.123 39.6039 20.1519 39.6553 20.1519 39.7516V42.8003C20.1519 43.8958 19.6379 44.6025 18.4814 44.6025C17.267 44.6025 16.8269 43.8572 16.8269 42.8003V39.7516C16.8269 39.6488 16.8655 39.6039 17.0068 39.6039H17.5144C17.6558 39.6039 17.6847 39.6553 17.6847 39.7516V42.7489C17.6847 43.5167 17.916 43.838 18.4814 43.838C19.0468 43.838 19.3006 43.5039 19.3006 42.7489H19.3038Z" fill="#C6C6C6"/>
<path d="M21.6553 41.2069C21.9091 41.0142 22.3107 40.8278 22.6544 40.8278C23.6021 40.8278 23.676 41.4896 23.676 42.2446V44.4066C23.676 44.4901 23.6471 44.5479 23.5186 44.5479H22.9982C22.8857 44.5479 22.8408 44.503 22.8408 44.4066C22.8408 44.095 22.8472 42.5594 22.8472 42.251C22.8472 41.7209 22.7123 41.5892 22.4296 41.5892C22.1918 41.5892 21.8481 41.737 21.6168 41.8591V44.4098C21.6168 44.4933 21.5879 44.5511 21.4594 44.5511H20.9454C20.8265 44.5511 20.7976 44.5062 20.7976 44.4098V41.0399C20.7976 40.9435 20.8265 40.8985 20.9454 40.8985H21.4658C21.5782 40.8985 21.6136 40.9499 21.6136 41.0399V41.1973L21.6489 41.2133L21.6553 41.2069Z" fill="#C6C6C6"/>
<path d="M26.2621 40.9242V39.44C26.2621 39.3436 26.3006 39.2922 26.4324 39.2922H26.9335C27.0684 39.2922 27.0813 39.3533 27.0813 39.44V44.4034C27.0813 44.4773 27.0427 44.5447 26.9335 44.5447H26.4131C26.3006 44.5447 26.2653 44.4997 26.2653 44.4034V44.262C26.2653 44.262 26.2492 44.2556 26.2428 44.2556C26.0051 44.4194 25.6164 44.5993 25.2823 44.5993C24.3956 44.5993 24.1707 43.9054 24.1707 42.781C24.1707 41.5667 24.4149 40.8214 25.5039 40.8214C25.6967 40.8214 25.9794 40.86 26.2492 40.9467L26.2653 40.9242H26.2621ZM25.4718 43.838C25.7031 43.838 26.0822 43.6966 26.2621 43.5842V41.647C25.9858 41.5667 25.7481 41.5442 25.5907 41.5442C25.1666 41.5442 25.0028 41.8366 25.0028 42.7586C25.0028 43.6805 25.1827 43.8412 25.4718 43.8412V43.838Z" fill="#C6C6C6"/>
<path d="M27.6146 42.7361C27.6146 42.0132 27.727 40.8214 29.0602 40.8214C30.2745 40.8214 30.4833 41.6856 30.4898 42.4919C30.4898 42.7746 30.4159 42.9481 30.1171 42.9481H28.4627C28.4851 43.6773 28.71 43.8861 29.1919 43.8861C29.4296 43.8861 29.7509 43.8572 30.0272 43.8187C30.1396 43.8026 30.2295 43.7962 30.252 43.9215L30.297 44.1817C30.3195 44.2845 30.2906 44.352 30.1846 44.4066C29.9147 44.5319 29.4328 44.6154 29.0891 44.6154C27.8073 44.6154 27.6113 43.7223 27.6113 42.7361H27.6146ZM28.4627 42.3763H29.6417C29.6256 41.8912 29.5389 41.4896 29.0538 41.4896C28.6522 41.4896 28.4884 41.7659 28.4659 42.3763H28.4627Z" fill="#C6C6C6"/>
<path d="M33.063 41.4543C33.079 41.5796 33.0566 41.6406 32.9152 41.6759C32.5136 41.7723 32.1249 41.9008 31.9001 42.01V44.4034C31.9001 44.4869 31.8711 44.5447 31.7426 44.5447H31.219C31.1066 44.5447 31.0712 44.4997 31.0712 44.4034V41.0334C31.0712 40.9371 31.1066 40.8921 31.219 40.8921H31.733C31.8679 40.8921 31.8968 40.9531 31.8968 41.0334V41.3161L31.9129 41.3322C32.1442 41.1009 32.5683 40.8921 32.867 40.8471C32.9634 40.8407 33.0084 40.8696 33.0148 40.982L33.0598 41.4511L33.063 41.4543Z" fill="#C6C6C6"/>
<path d="M35.4145 44.2267C35.437 44.352 35.376 44.4066 35.3117 44.4419C35.0644 44.5672 34.6917 44.6058 34.4701 44.6058C33.7762 44.6058 33.5834 44.2556 33.5834 43.6902V41.5571H33.2943C33.1754 41.5571 33.1465 41.5121 33.1465 41.4093V41.0431C33.1465 40.9403 33.1754 40.8953 33.2943 40.8953H33.593V40.1211C33.593 40.0247 33.6605 39.9862 33.7505 39.9637L34.2195 39.8223C34.3319 39.7934 34.3994 39.8287 34.3994 39.9476V40.8953H35.0644C35.1993 40.8953 35.2057 40.9467 35.2057 41.0431V41.3997C35.2057 41.5025 35.1993 41.5571 35.0644 41.5571H34.393V43.3754C34.393 43.7641 34.4604 43.8604 34.7496 43.8604C34.8331 43.8604 35.0483 43.838 35.1832 43.8219C35.331 43.8058 35.3631 43.838 35.376 43.9408L35.421 44.2235L35.4145 44.2267Z" fill="#C6C6C6"/>
<path d="M35.5944 43.5488C35.5944 42.6686 36.0346 42.3024 36.8923 42.3024H37.644V42.1385C37.644 41.7145 37.4738 41.5282 37.0015 41.5282C36.7574 41.5282 36.3751 41.5667 36.0635 41.602C35.9671 41.6181 35.9285 41.586 35.9157 41.4992L35.8547 41.223C35.8386 41.1394 35.8547 41.0752 35.951 41.0302C36.2337 40.8889 36.8088 40.8214 37.13 40.8214C38.293 40.8214 38.4632 41.3804 38.4632 42.2221V43.6163C38.4632 43.9054 38.4632 43.9375 38.6656 43.9504C38.7909 43.9665 38.823 43.9857 38.823 44.0628V44.3552C38.823 44.4291 38.8005 44.4965 38.6977 44.5254C38.6014 44.564 38.4729 44.5768 38.3251 44.5768C37.9589 44.5768 37.7822 44.474 37.7147 44.1978C37.7083 44.1978 37.6986 44.1913 37.6922 44.1913C37.3806 44.4387 36.9694 44.609 36.5518 44.609C35.8225 44.609 35.5977 44.1753 35.5977 43.552L35.5944 43.5488ZM37.6344 42.8999H36.9405C36.6578 42.8999 36.4329 43.0348 36.4329 43.5103C36.4329 43.8219 36.5229 43.9279 36.7831 43.9279C37.0433 43.9279 37.4159 43.7416 37.6312 43.5938V42.8999H37.6344Z" fill="#C6C6C6"/>
<path d="M40.0374 43.5777V44.413C40.0374 44.4965 40.0084 44.5479 39.8799 44.5479H39.3659C39.2535 44.5479 39.2182 44.5094 39.2182 44.413V39.4336C39.2182 39.3372 39.2567 39.2922 39.3659 39.2922H39.8799C40.0052 39.2922 40.0374 39.3533 40.0374 39.4336V42.3859C40.0374 42.3859 40.0438 42.3923 40.0534 42.3923C40.4646 41.737 40.6509 41.4768 40.9626 41.0206C41.0236 40.9371 41.0654 40.8953 41.2228 40.8953H41.7978C41.9038 40.8953 41.9327 40.9852 41.8717 41.0656L40.9176 42.3763L42.0066 44.3809C42.058 44.4548 42.013 44.5447 41.9102 44.5447H41.3513C41.1489 44.5447 41.1135 44.4194 41.03 44.2684L40.4036 43.0702C40.2783 43.234 40.1562 43.4043 40.0374 43.5777Z" fill="#C6C6C6"/>
<path d="M42.8483 40.3652C42.4692 40.3652 42.4146 40.15 42.4146 39.9251C42.4146 39.6874 42.5046 39.5011 42.8483 39.5011C43.221 39.5011 43.2948 39.6713 43.2948 39.9251C43.2948 40.1564 43.2274 40.3652 42.8483 40.3652ZM43.1021 44.5479H42.6106C42.4853 44.5479 42.4403 44.503 42.4403 44.4066V41.0366C42.4403 40.9403 42.4853 40.8953 42.6106 40.8953H43.1021C43.2274 40.8953 43.2595 40.9563 43.2595 41.0366V44.4066C43.2595 44.4901 43.2306 44.5479 43.1021 44.5479Z" fill="#C6C6C6"/>
<path d="M44.7887 41.2069C45.0425 41.0142 45.444 40.8278 45.7878 40.8278C46.7354 40.8278 46.8093 41.4896 46.8093 42.2446V44.4066C46.8093 44.4901 46.7804 44.5479 46.6519 44.5479H46.1315C46.0191 44.5479 45.9741 44.503 45.9741 44.4066C45.9741 44.095 45.9805 42.5594 45.9805 42.251C45.9805 41.7209 45.8456 41.5892 45.5629 41.5892C45.3251 41.5892 44.9814 41.737 44.7501 41.8591V44.4098C44.7501 44.4933 44.7212 44.5511 44.5927 44.5511H44.0787C43.9598 44.5511 43.9309 44.5062 43.9309 44.4098V41.0399C43.9309 40.9435 43.9598 40.8985 44.0787 40.8985H44.5991C44.7116 40.8985 44.7469 40.9499 44.7469 41.0399V41.1973L44.7822 41.2133L44.7887 41.2069Z" fill="#C6C6C6"/>
<path d="M50.0379 41.0206C50.2242 41.088 50.2467 41.223 50.2467 41.3547V44.4837C50.2467 45.3543 50.1118 45.9968 48.8236 45.9968C48.4959 45.9968 48.0494 45.9454 47.7506 45.8265C47.6028 45.759 47.5868 45.6916 47.6028 45.6016L47.6542 45.3189C47.6767 45.1936 47.7217 45.184 47.8791 45.2161C48.2004 45.2675 48.573 45.29 48.7818 45.29C49.2894 45.29 49.4307 45.0973 49.4307 44.6411V44.4258C49.1256 44.5447 48.8782 44.5833 48.6854 44.5833C47.5611 44.5833 47.3298 43.838 47.3298 42.7361C47.3298 41.5667 47.6574 40.8214 48.8204 40.8214C49.2316 40.8214 49.7295 40.8889 50.0411 41.0238L50.0379 41.0206ZM48.7465 43.854C48.9167 43.854 49.1641 43.809 49.4179 43.7287V41.6342C49.238 41.5988 49.0388 41.5731 48.8525 41.5731C48.4798 41.5731 48.1747 41.7081 48.1747 42.6686C48.1747 43.6291 48.3385 43.854 48.7497 43.854H48.7465Z" fill="#C6C6C6"/>
<path d="M25.7705 0L25.3657 1.17899H24.1867L25.099 1.95963L24.8581 3.00691L25.7705 2.3612L26.6828 3.00691L26.4419 1.95963L27.351 1.17899H26.172L25.7705 0Z" fill="#164194"/>
<path d="M25.7705 20.9874L25.3657 22.1696H24.1867L25.099 22.947L24.8581 23.9943L25.7705 23.3486L26.6828 23.9943L26.4419 22.947L27.351 22.1696H26.172L25.7705 20.9874Z" fill="#164194"/>
<path d="M15.1949 10.4921L14.7933 11.6743H13.6111L14.5234 12.4806L14.2825 13.5279L15.1949 12.8565L16.1329 13.5279L15.8663 12.4806L16.7786 11.6743H15.5964L15.1949 10.4921Z" fill="#164194"/>
<path d="M36.3428 10.4921L35.9413 11.6743H34.7591L35.6746 12.4806L35.4048 13.5279L36.3428 12.8565L37.2584 13.5279L37.0143 12.4806L37.9266 11.6743H36.7476L36.3428 10.4921Z" fill="#164194"/>
<path d="M20.4794 1.58056L20.0811 2.76276H18.8989L19.8112 3.5434L19.5703 4.58747L20.4794 3.94497L21.4207 4.58747L21.1509 3.5434L22.0664 2.76276H20.8842L20.4794 1.58056Z" fill="#164194"/>
<path d="M31.0583 1.58056L30.6535 2.76276H29.4745L30.3836 3.5434L30.117 4.58747L31.0583 3.94497L31.9674 4.58747L31.7297 3.5434L32.642 2.76276H31.4598L31.0583 1.58056Z" fill="#164194"/>
<path d="M20.4794 19.4036L20.0811 20.5858H18.8989L19.8112 21.3632L19.5703 22.4105L20.4794 21.7648L21.4207 22.4105L21.1509 21.3632L22.0664 20.5858H20.8842L20.4794 19.4036Z" fill="#164194"/>
<path d="M31.0583 19.4036L30.6535 20.5858H29.4745L30.3836 21.3632L30.117 22.4105L31.0583 21.7648L31.9674 22.4105L31.7297 21.3632L32.642 20.5858H31.4598L31.0583 19.4036Z" fill="#164194"/>
<path d="M16.7786 5.2621L16.3771 6.44109H15.1949L16.1329 7.21852L15.8663 8.2658L16.7786 7.62008L17.7167 8.2658L17.45 7.21852L18.3624 6.44109H17.1802L16.7786 5.2621Z" fill="#164194"/>
<path d="M34.7591 5.2621L34.3575 6.44109H33.1753L34.0877 7.21852L33.821 8.2658L34.7591 7.62008L35.6746 8.2658L35.4048 7.21852L36.3428 6.44109H35.1638L34.7591 5.2621Z" fill="#164194"/>
<path d="M16.7786 15.7542L16.3771 16.9075H15.1949L16.1329 17.6849L15.8663 18.7322L16.7786 18.0897L17.7167 18.7322L17.45 17.6849L18.3624 16.9075H17.1802L16.7786 15.7542Z" fill="#164194"/>
<path d="M34.7591 15.7542L34.3575 16.9075H33.1753L34.0877 17.6849L33.821 18.7322L34.7591 18.0897L35.6746 18.7322L35.4048 17.6849L36.3428 16.9075H35.1638L34.7591 15.7542Z" fill="#164194"/>
</g>
<defs>
<clipPath id="clip0_2450_4408">
<rect width="49.8197" height="46" fill="white" transform="translate(0.950684)"/>
</clipPath>
</defs>
</svg>
